<svg width="250" height="250" viewBox="0 0 250 250" fill="none" xmlns="http://www.w3.org/2000/svg">
<path opacity="0.42" d="M246 125C246 191.826 191.826 246 125 246C58.1735 246 4 191.826 4 125C4 58.1735 58.1735 3.99997 125 3.99997C191.826 3.99997 246 58.1735 246 125Z" fill="black"/>
<path d="M177.802 116.893V183.45C177.802 184.184 177.21 184.775 176.476 184.775H73.3258C72.5913 184.775 72 184.184 72 183.45V116.893" stroke="white" stroke-opacity="0.5" stroke-width="10"/>
<path d="M156.468 106.417C157.527 109.725 159.659 112.68 162.466 114.728C165.272 116.775 168.738 117.905 172.213 117.905C175.687 117.905 179.153 116.775 181.959 114.728C184.766 112.68 187.957 109.89 187.957 106.417V99.1999C187.957 97.3149 187.585 95.4485 186.863 93.7075L175.752 66.943C175.644 66.6828 175.462 66.4605 175.227 66.3042C174.993 66.1478 174.717 66.0645 174.435 66.0647L90.5423 66.1269L75.5219 66.0677C75.2403 66.0666 74.9647 66.1493 74.7301 66.3051C74.4956 66.461 74.3128 66.683 74.2049 66.943L63.0947 93.7075C62.372 95.4485 62 97.3149 62 99.1999V106.417C62 109.89 65.1917 112.68 67.9981 114.728C70.8044 116.775 74.27 117.905 77.7448 117.905C81.2194 117.905 84.6848 116.775 87.4916 114.728C90.298 112.68 92.4307 109.725 93.4897 106.417" fill="#4099AA"/>
<path d="M156.468 106.417C157.527 109.725 159.659 112.68 162.466 114.728C165.272 116.775 168.738 117.905 172.213 117.905C175.687 117.905 179.153 116.775 181.959 114.728C184.766 112.68 187.957 109.89 187.957 106.417V99.1999C187.957 97.3149 187.585 95.4485 186.863 93.7075L175.752 66.943C175.644 66.6828 175.462 66.4605 175.227 66.3042C174.993 66.1478 174.717 66.0645 174.435 66.0647L90.5423 66.1269L75.5219 66.0677C75.2403 66.0666 74.9647 66.1493 74.7301 66.3051C74.4956 66.461 74.3128 66.683 74.2049 66.943L63.0947 93.7075C62.372 95.4485 62 97.3149 62 99.1999V106.417C62 109.89 65.1917 112.68 67.9981 114.728C70.8044 116.775 74.27 117.905 77.7448 117.905C81.2194 117.905 84.6848 116.775 87.4916 114.728C90.298 112.68 92.4307 109.725 93.4897 106.417" stroke="#4099AA" stroke-width="10"/>
<path d="M62 96.3479H187.954Z" fill="#4099AA"/>
<path d="M62 96.3479H187.954" stroke="#4099AA" stroke-width="10"/>
<path d="M99.789 66L93.4912 96.343V106.415" fill="#4099AA"/>
<path d="M99.789 66L93.4912 96.343V106.415" stroke="#4099AA" stroke-width="10"/>
<path d="M124.982 66V106.416Z" fill="#4099AA"/>
<path d="M124.982 66V106.416" stroke="#4099AA" stroke-width="10"/>
<path d="M150.174 66L156.472 96.343V106.415" fill="#4099AA"/>
<path d="M150.174 66L156.472 96.343V106.415" stroke="#4099AA" stroke-width="10"/>
<path d="M124.982 106.417C126.041 109.725 128.174 112.68 130.98 114.728C133.786 116.775 137.252 117.905 140.727 117.905C144.202 117.905 147.667 116.775 150.473 114.728C153.28 112.68 155.413 109.725 156.472 106.417" fill="#4099AA"/>
<path d="M124.982 106.417C126.041 109.725 128.174 112.68 130.98 114.728C133.786 116.775 137.252 117.905 140.727 117.905C144.202 117.905 147.667 116.775 150.473 114.728C153.28 112.68 155.413 109.725 156.472 106.417" stroke="#4099AA" stroke-width="10"/>
<path d="M93.4956 106.417C94.5545 109.725 96.6873 112.68 99.4937 114.728C102.3 116.775 105.766 117.905 109.24 117.905C112.715 117.905 116.18 116.775 118.987 114.728C121.794 112.68 123.926 109.725 124.985 106.417" fill="#4099AA"/>
<path d="M93.4956 106.417C94.5545 109.725 96.6873 112.68 99.4937 114.728C102.3 116.775 105.766 117.905 109.24 117.905C112.715 117.905 116.18 116.775 118.987 114.728C121.794 112.68 123.926 109.725 124.985 106.417" stroke="#4099AA" stroke-width="10"/>
</svg>
