<svg width="250" height="250" viewBox="0 0 250 250" fill="none" xmlns="http://www.w3.org/2000/svg">
<path opacity="0.42" d="M246 125C246 191.826 191.826 246 125 246C58.1735 246 4 191.826 4 125C4 58.1735 58.1735 3.99997 125 3.99997C191.826 3.99997 246 58.1735 246 125Z" fill="black"/>
<path d="M78.7169 191.527C78.7169 191.527 70.0088 192 68.5088 191.527C67.0087 191.054 63.5088 190.073 63.5088 181C63.5088 171.927 62.821 107.739 63.2845 83.9212C63.3819 78.9185 63.4477 75.917 63.4477 75.917C63.4477 75.917 64.1752 66.4647 71.4459 66.4647C78.7165 66.4647 169.602 66.459 173.968 66.4647C178.333 66.4704 184.147 70.0945 184.147 75.917C184.147 81.7396 184.509 175.5 184.147 180.62C183.785 185.74 182.696 188.624 178.33 190.073C173.965 191.521 167.424 191.527 167.424 191.527" stroke="white" stroke-width="3" stroke-linecap="round"/>
<path d="M63.4502 83.1942H184.15M72.1754 75.196H88.1717M96.897 75.196H104.168M112.166 123.912V114.46M133.979 123.912C133.979 123.912 133.979 106.462 133.979 103.553C133.979 100.645 130.344 95.555 123.073 95.555C115.802 95.555 112.166 100.645 112.166 103.553C112.166 106.462 112.166 113.733 112.166 113.733V114.46M128.162 114.46H112.166M83.8091 123.912V95.555C83.8091 95.555 92.5344 95.555 96.897 95.555C101.26 95.555 104.168 100.391 104.895 103.553C105.622 106.715 104.895 112.278 104.895 116.641C104.895 121.004 97.6241 123.912 97.6241 123.912H83.8091ZM157.247 123.185C153.843 124.613 149.976 124.639 147.067 123.185C144.159 121.731 141.25 118.822 141.25 115.914C141.25 113.006 141.25 110.824 141.25 105.007C141.25 99.1905 143.572 97.1971 147.067 95.555C150.151 94.1062 154.061 94.3461 157.247 95.555C160.443 96.768 162.336 99.9176 162.336 105.007C162.336 112.278 162.336 110.532 162.336 115.914C162.336 118.822 158.981 122.458 157.247 123.185Z" stroke="white" stroke-width="3" stroke-linecap="round"/>
<path d="M98.5088 182.5L116.509 174.5M123.073 193.714V179M123.073 165V147.179M128.89 167.538L157.974 145.725M147.795 182.08L129.509 174.809M88.0088 146L117.009 168M90.3535 177.718L84.0088 148M89.5088 140.5L114.348 138.454M131.798 138.454L156.52 140.635M156.52 177.718L162.009 148M147.509 190.5L130.009 199M116.509 199L98.3516 190.806" stroke="#4099AA" stroke-width="3" stroke-linecap="round"/>
<path d="M82.3555 135.092C85.8187 135.092 88.626 137.9 88.626 141.363C88.6257 144.826 85.8185 147.633 82.3555 147.634C78.8922 147.634 76.0842 144.826 76.084 141.363C76.084 137.9 78.8921 135.092 82.3555 135.092Z" stroke="#4099AA" stroke-width="2"/>
<path d="M163.792 135.092C167.255 135.092 170.062 137.9 170.062 141.363C170.062 144.826 167.255 147.633 163.792 147.634C160.328 147.634 157.52 144.826 157.52 141.363C157.52 137.9 160.328 135.092 163.792 135.092Z" stroke="#4099AA" stroke-width="2"/>
<path d="M123.073 165.63C126.536 165.63 129.344 168.438 129.344 171.901C129.344 175.364 126.536 178.172 123.073 178.172C119.61 178.172 116.802 175.365 116.802 171.901C116.802 168.438 119.61 165.63 123.073 165.63Z" stroke="#4099AA" stroke-width="2"/>
<path d="M123.073 194.714C126.536 194.715 129.344 197.523 129.344 200.986C129.344 204.449 126.536 207.256 123.073 207.256C119.61 207.256 116.802 204.449 116.802 200.986C116.802 197.522 119.61 194.714 123.073 194.714Z" stroke="#4099AA" stroke-width="2"/>
<path d="M123.073 130.729C127.34 130.729 130.798 134.188 130.798 138.455C130.798 142.721 127.34 146.179 123.073 146.179C118.807 146.179 115.348 142.721 115.348 138.455C115.348 134.188 118.807 130.729 123.073 130.729Z" stroke="#4099AA" stroke-width="2"/>
<path d="M91.0811 178.718C95.3474 178.718 98.8057 182.177 98.8057 186.443C98.8055 190.71 95.3473 194.168 91.0811 194.168C86.8146 194.168 83.3556 190.71 83.3555 186.443C83.3555 182.177 86.8145 178.718 91.0811 178.718Z" stroke="#4099AA" stroke-width="2"/>
<path d="M155.066 178.718C159.332 178.718 162.791 182.177 162.791 186.443C162.79 190.71 159.332 194.168 155.066 194.168C150.799 194.168 147.341 190.71 147.34 186.443C147.34 182.177 150.799 178.718 155.066 178.718Z" stroke="#4099AA" stroke-width="2"/>
</svg>
