<svg width="250" height="250" viewBox="0 0 250 250" fill="none" xmlns="http://www.w3.org/2000/svg">
<path opacity="0.42" d="M246 125C246 191.826 191.826 246 125 246C58.1735 246 4 191.826 4 125C4 58.1735 58.1735 3.99997 125 3.99997C191.826 3.99997 246 58.1735 246 125Z" fill="black"/>
<path d="M116.157 45.841C115.173 45.827 114.191 46.037 113.296 46.4584C111.914 47.1091 110.97 48.3259 110.327 49.6959C109.279 48.386 108.608 47.9501 106.986 47.4943C105.188 46.9895 103.246 47.1351 101.54 47.8839C99.8342 48.6324 98.4147 49.961 97.5371 51.6044C97.0691 52.481 96.1578 52.789 96.0184 53.7689C95.5486 53.4631 95.0584 53.1816 94.502 53.0605C93.2008 52.7774 92.5086 53.0683 91.4127 53.7327C90.3248 54.3927 89.5074 55.3862 88.9729 56.4856C88.3165 57.8358 88.0736 59.3696 88.2792 60.8581C88.3521 61.3859 88.7558 61.7829 88.936 62.2813C88.4392 62.1487 87.9449 61.9947 87.4253 62.002C85.9345 62.023 84.4916 62.642 83.4476 63.7117C82.2646 64.9238 81.6737 66.6361 81.8553 68.3241C81.9491 69.1964 82.258 70.0208 82.7179 70.7518C81.8643 70.9183 81.0493 71.2767 80.3687 71.8466C79.052 72.949 78.3522 74.0195 78.5192 75.7336C78.6075 76.6404 78.9292 77.5122 79.4459 78.2556C79.9624 78.9985 80.6595 79.5981 81.462 80.0016C82.5496 80.5482 83.8001 80.7046 84.9921 80.4644C84.5827 81.4738 84.2891 83.8303 84.1414 84.9127C83.9952 85.9838 83.9861 87.0707 84.1062 88.1438C83.6871 88.1734 83.2696 88.2242 82.8574 88.3C82.1238 88.2824 80.743 88.2889 80.0098 88.3169C78.9895 88.3559 77.96 88.4387 76.934 88.6003C76.3943 88.6851 75.8503 89.4411 75.3088 89.5848C74.3174 89.848 73.3827 90.2211 72.4837 90.616C71.3263 91.1243 70.1559 91.0537 69.0779 91.8314C68.0197 92.5949 67.7027 93.5518 67.021 94.7332C66.2519 96.0663 65.9167 96.8902 65.7042 98.2944C65.5728 99.1623 65.4832 100.037 65.4351 100.914L65.4384 101.023L66.6495 116.097L66.6519 116.131C66.8602 117.932 67.5327 119.667 68.5871 121.139C70.3788 123.639 73.2516 125.276 76.3062 125.538H76.2854L82.0782 126.192C82.4816 128.1 82.9529 130.644 83.4991 132.515C84.3473 135.421 85.3629 138.269 86.5028 141.064C87.7289 144.07 89.109 147.043 90.8225 149.841C90.8316 149.857 90.8415 149.871 90.8506 149.885C89.3226 150.702 87.8455 151.615 86.4387 152.628C82.6307 155.369 79.9199 158.206 77.664 162.389C74.695 167.895 73.1414 174.466 74.5048 180.577C74.5099 180.6 74.516 180.624 74.5232 180.647C75.4992 183.735 76.3534 186.653 78.2966 189.238C81.7514 193.835 86.5247 197.279 91.6873 199.646C96.8459 202.012 102.389 203.34 107.939 204.17C120.61 206.066 133.581 204.773 146.116 202.252C155.365 200.392 164.61 197.439 172.448 191.981C176.774 188.969 180.733 185.735 182.905 180.789C183.885 178.558 183.831 176.809 183.999 174.375C184 174.35 184 174.324 183.999 174.299C183.936 170.992 183.205 167.704 181.859 164.685C179.976 160.463 176.942 156.864 173.44 153.949C170.487 151.491 167.225 149.513 164.003 147.578C161.271 145.937 157.898 144.315 155.271 142.564C152.871 140.966 151.207 139.236 148.964 137.422C148.182 134.613 147.801 131.688 148.198 128.8C148.267 128.295 148.356 127.79 148.458 127.286C149.652 126.88 150.728 126.153 151.546 125.186C152.464 124.102 153.035 122.098 153.175 120.681C153.265 119.767 152.91 118.902 152.648 118.026C153.11 118.044 153.568 118.174 154.022 118.074C154.918 117.877 153.816 118.101 154.508 117.495C155.199 116.889 155.732 116.115 156.049 115.25C156.366 114.384 156.461 113.448 156.325 112.536C156.234 111.931 158.473 111.418 158.193 110.878C159.91 110.052 159.46 108.767 160.301 107.042C161.285 105.022 162.081 102.64 161.356 100.513C160.667 98.4933 159.796 96.8824 157.936 95.8671L157.984 94.9494C158.203 94.1861 158.388 93.4126 158.539 92.6327C158.84 91.0809 159.012 89.458 158.842 87.8198C158.738 86.8291 158.5 85.7537 157.843 84.8261C157.357 84.1408 156.683 83.6086 155.905 83.2966C157.393 82.5697 158.723 81.5617 159.665 80.1775C160.798 78.5131 161.446 76.4613 161.237 74.3906C161.132 73.3558 160.815 72.3381 160.277 71.43C159.738 70.5206 158.984 69.7353 158.067 69.1818C157.334 68.7391 156.468 68.6715 155.624 68.5644C155.69 68.483 155.813 68.4689 155.876 68.3849C156.83 67.1124 157.383 65.5624 157.45 63.9705C157.52 62.2687 157.031 60.5664 156.072 59.1632C155.113 57.7603 154.357 56.693 152.756 56.1421C150.954 55.5221 148.955 55.5791 147.191 56.3007C146.647 56.5232 146.199 56.9053 145.72 57.2409C145.756 56.6241 145.836 56.0069 145.732 55.3943C145.397 53.4347 144.334 51.6178 142.736 50.414C141.133 49.2073 139.059 48.6784 137.071 49.0472C135.566 49.3265 134.179 50.1074 133.151 51.2472C132.593 51.8658 132.264 52.6226 132.024 53.4173C131.917 53.3333 131.807 53.2525 131.694 53.1758C131.023 52.7197 130.266 52.4046 129.475 52.2485C128.685 52.0923 127.861 52.0961 127.063 52.2782C125.969 52.5278 124.965 53.1079 124.204 53.9259L122.177 53.7722C122.371 52.8878 122.632 51.9999 122.455 51.1069C122.197 49.8084 121.545 48.6091 120.599 47.6875C119.652 46.7659 118.438 46.1481 117.138 45.9295C116.813 45.8748 116.485 45.8455 116.157 45.841Z" fill="url(#paint0_linear_2001_150)"/>
<path d="M91.1666 150.265C89.4671 151.136 87.8326 152.136 86.2814 153.253C82.5573 155.934 79.2919 159.332 77.1093 163.379C74.2396 168.701 73.3584 175.076 74.6762 180.983C75.6233 183.979 77.0808 186.811 78.9663 189.32C82.3187 193.78 86.9734 197.149 92.0333 199.47C97.0932 201.79 102.56 203.105 108.062 203.927C120.624 205.806 133.499 205.171 145.952 202.667C155.138 200.819 164.27 197.889 171.971 192.527C176.215 189.571 180.052 185.788 182.137 181.04C183.078 178.898 183.646 176.591 183.807 174.256C183.746 171.063 183.038 167.884 181.738 164.97C179.92 160.893 176.975 157.388 173.551 154.538C170.663 152.134 167.438 150.176 164.218 148.242C161.488 146.603 158.75 144.973 156.099 143.207C153.531 141.496 151.047 139.66 148.657 137.706M149.457 140.063C147.986 136.467 147.482 132.477 148.011 128.625C148.325 126.34 148.992 124.121 149.625 121.904C150.635 118.366 151.565 114.805 152.581 111.269C153.548 107.903 154.592 104.56 155.532 101.187C156.307 98.4028 157.016 95.5743 157.139 92.6859C157.4 86.5678 155.016 80.6207 151.909 75.353C148.391 69.3872 143.813 63.9394 138.007 60.1918C135.012 58.2593 131.717 56.7974 128.278 55.8797C120.66 53.8471 112.383 54.5599 105.127 57.6557C100.757 59.5205 96.7502 62.2236 93.3241 65.5265C90.8356 67.9255 88.6131 70.7043 87.4321 73.9601C86.5822 76.303 86.2982 78.851 86.6112 81.3247" stroke="black" stroke-width="5.18476" stroke-linecap="round" stroke-linejoin="round"/>
<path d="M84.6051 88.7314C84.2704 87.2904 84.2008 85.7877 84.4009 84.3218C84.6829 82.2561 85.5054 80.2675 86.7635 78.6096C86.1099 79.3919 85.189 79.9445 84.1937 80.1517C83.1984 80.3589 82.1349 80.2193 81.2258 79.7623C80.5596 79.4274 79.9768 78.9252 79.5502 78.3115C79.1236 77.6979 78.8546 76.9737 78.782 76.2287C78.646 74.8329 79.2367 73.3858 80.3089 72.4879C81.3811 71.5902 82.9041 71.2675 84.2457 71.6538C83.0712 70.8809 82.2684 69.5628 82.1175 68.1601C81.9666 66.7574 82.4708 65.2974 83.4539 64.2902C84.3231 63.3996 85.5498 62.8717 86.791 62.8543C88.0322 62.8368 89.2732 63.3298 90.1669 64.1956C89.2933 63.2151 88.7185 61.9693 88.5385 60.6657C88.3584 59.3621 88.5738 58.0061 89.1486 56.8236C89.6161 55.8621 90.3282 55.008 91.2398 54.4549C92.1514 53.9019 93.2672 53.6663 94.308 53.8927C95.3942 54.129 96.3594 54.8752 96.8653 55.8696C96.6641 54.3166 96.9589 52.7027 97.6958 51.3227C98.4751 49.8634 99.748 48.6737 101.258 48.0109C102.769 47.3482 104.507 47.2191 106.094 47.6647C107.998 48.1993 109.654 49.5674 110.544 51.3407C110.856 49.5721 112.065 47.9879 113.684 47.2258C114.705 46.7448 115.873 46.584 116.986 46.7711C118.099 46.9582 119.151 47.4925 119.961 48.2815C120.771 49.0706 121.336 50.111 121.556 51.2227C121.777 52.3344 121.654 53.5129 121.207 54.554L132.269 55.3958C132.38 54.0693 132.936 52.7842 133.826 51.7975C134.715 50.8108 135.933 50.1286 137.236 49.8868C138.953 49.5681 140.789 50.0308 142.187 51.0833C143.584 52.1359 144.535 53.7542 144.83 55.4842C145.119 57.1754 144.788 58.9664 143.914 60.4405C144.671 58.9361 145.982 57.7214 147.535 57.0859C149.089 56.4505 150.872 56.3997 152.458 56.9458C153.87 57.4313 155.118 58.3824 155.963 59.6179C156.807 60.8535 157.242 62.3673 157.18 63.8649C157.121 65.2664 156.63 66.6468 155.79 67.7671C154.95 68.8874 153.765 69.7427 152.44 70.1852C153.265 69.5721 154.273 69.2112 155.298 69.1618C156.323 69.1124 157.361 69.3747 158.241 69.9056C159.019 70.3756 159.671 71.0508 160.136 71.8351C160.601 72.6194 160.88 73.5107 160.972 74.4188C161.156 76.2352 160.582 78.0854 159.556 79.5923C158.169 81.6291 155.948 83.0723 153.53 83.5062L158.12 86.9615L157.645 96.2315C159.564 97.0753 161.102 98.7539 161.781 100.745C162.426 102.634 162.292 104.778 161.418 106.572C160.544 108.365 158.94 109.786 157.06 110.432C157.556 111.058 157.885 111.816 158.003 112.607C158.116 113.363 158.037 114.148 157.774 114.866C157.511 115.585 157.066 116.234 156.492 116.737C155.918 117.24 155.217 117.595 154.473 117.759C153.729 117.922 152.945 117.895 152.214 117.679C152.783 118.741 153.028 119.974 152.91 121.174C152.789 122.4 152.287 123.585 151.493 124.524C150.699 125.463 149.615 126.15 148.43 126.468" fill="url(#paint1_linear_2001_150)"/>
<path d="M84.6051 88.7314C84.2704 87.2904 84.2008 85.7877 84.4009 84.3218C84.6829 82.2561 85.5054 80.2675 86.7635 78.6096C86.1099 79.3919 85.189 79.9445 84.1937 80.1517C83.1984 80.3589 82.1349 80.2193 81.2258 79.7623C80.5596 79.4274 79.9768 78.9252 79.5502 78.3115C79.1236 77.6979 78.8546 76.9737 78.782 76.2287C78.646 74.8329 79.2367 73.3858 80.3089 72.4879C81.3811 71.5902 82.9041 71.2675 84.2457 71.6538C83.0712 70.8809 82.2684 69.5628 82.1175 68.1601C81.9666 66.7574 82.4708 65.2974 83.4539 64.2902C84.3231 63.3996 85.5498 62.8717 86.791 62.8543C88.0322 62.8368 89.2732 63.3298 90.1669 64.1956C89.2933 63.2151 88.7185 61.9693 88.5385 60.6657C88.3584 59.3621 88.5738 58.0061 89.1486 56.8236C89.6161 55.8621 90.3282 55.008 91.2398 54.4549C92.1514 53.9019 93.2672 53.6663 94.308 53.8927C95.3942 54.129 96.3594 54.8752 96.8653 55.8696C96.6641 54.3166 96.9589 52.7027 97.6958 51.3227C98.4751 49.8634 99.748 48.6737 101.258 48.0109C102.769 47.3482 104.507 47.2191 106.094 47.6647C107.998 48.1993 109.654 49.5674 110.544 51.3407C110.856 49.5721 112.065 47.9879 113.684 47.2258C114.705 46.7448 115.873 46.584 116.986 46.7711C118.099 46.9582 119.151 47.4925 119.961 48.2815C120.771 49.0706 121.336 50.111 121.556 51.2227C121.777 52.3344 121.654 53.5129 121.207 54.554L132.269 55.3958C132.38 54.0693 132.936 52.7842 133.826 51.7975C134.715 50.8108 135.933 50.1286 137.236 49.8868C138.953 49.5681 140.789 50.0308 142.187 51.0833C143.584 52.1359 144.535 53.7542 144.83 55.4842C145.119 57.1754 144.788 58.9664 143.914 60.4405C144.671 58.9361 145.982 57.7214 147.535 57.0859C149.089 56.4505 150.872 56.3997 152.458 56.9458C153.87 57.4313 155.118 58.3824 155.963 59.6179C156.807 60.8535 157.242 62.3673 157.18 63.8649C157.121 65.2664 156.63 66.6468 155.79 67.7671C154.95 68.8874 153.765 69.7427 152.44 70.1852C153.265 69.5721 154.273 69.2112 155.298 69.1618C156.323 69.1124 157.361 69.3747 158.241 69.9056C159.019 70.3756 159.671 71.0508 160.136 71.8351C160.601 72.6194 160.88 73.5107 160.972 74.4188C161.156 76.2352 160.582 78.0854 159.556 79.5923C158.169 81.6291 155.948 83.0723 153.53 83.5062L158.12 86.9615L157.645 96.2315C159.564 97.0753 161.102 98.7539 161.781 100.745C162.426 102.634 162.292 104.778 161.418 106.572C160.544 108.365 158.94 109.786 157.06 110.432C157.556 111.058 157.885 111.816 158.003 112.607C158.116 113.363 158.037 114.148 157.774 114.866C157.511 115.585 157.066 116.234 156.492 116.737C155.918 117.24 155.217 117.595 154.473 117.759C153.729 117.922 152.945 117.895 152.214 117.679C152.783 118.741 153.028 119.974 152.91 121.174C152.789 122.4 152.287 123.585 151.493 124.524C150.699 125.463 149.615 126.15 148.43 126.468" stroke="black" stroke-width="5.6606" stroke-linecap="round" stroke-linejoin="round"/>
<path d="M133.839 100.284C131.456 98.9237 129.702 96.4993 129.149 93.8025C128.866 92.4235 128.888 90.9763 129.262 89.6194C129.699 88.0324 130.621 86.5842 131.872 85.521C131.519 86.5949 130.867 87.5676 130.009 88.3002C129.152 89.0328 128.091 89.5228 126.98 89.7004C125.868 89.878 124.709 89.7424 123.668 89.3132C122.626 88.884 121.706 88.1624 121.039 87.2517C120.406 86.3881 120.002 85.357 119.878 84.2919C119.754 83.2267 119.912 82.1298 120.329 81.143C119.245 82.5793 117.604 83.5794 115.836 83.8814C114.438 84.1202 112.955 83.9231 111.708 83.2454C110.03 82.3341 108.857 80.5456 108.685 78.6373C108.565 80.0403 107.788 81.3724 106.628 82.1632C105.725 82.7794 104.635 83.0635 103.552 83.2028C102.468 83.3422 101.372 83.3475 100.286 83.4629C99.6773 83.5276 99.0703 83.627 98.458 83.6339C97.8457 83.6413 97.2184 83.5498 96.6801 83.2562C96.2308 83.0112 95.8573 82.6279 95.6229 82.1713C95.3885 81.7147 95.2942 81.1867 95.3559 80.6767C95.4176 80.1667 95.6352 79.6768 95.9717 79.29C96.3082 78.9032 96.7623 78.6211 97.257 78.4915C95.3296 78.3093 93.3569 78.634 91.588 79.4246C90.9432 79.7128 90.3086 80.0665 89.6081 80.1518C89.0447 80.2205 88.4605 80.105 87.9649 79.8271C87.4692 79.5493 87.0646 79.1104 86.8267 78.5925" fill="url(#paint2_linear_2001_150)"/>
<path d="M133.839 100.284C131.456 98.9237 129.702 96.4993 129.149 93.8025C128.866 92.4235 128.888 90.9763 129.262 89.6194C129.699 88.0324 130.621 86.5842 131.872 85.521C131.519 86.5949 130.867 87.5676 130.009 88.3002C129.152 89.0328 128.091 89.5228 126.98 89.7004C125.868 89.878 124.709 89.7424 123.668 89.3132C122.626 88.884 121.706 88.1624 121.039 87.2517C120.406 86.3881 120.002 85.357 119.878 84.2919C119.754 83.2267 119.912 82.1298 120.329 81.143C119.245 82.5793 117.604 83.5794 115.836 83.8814C114.438 84.1202 112.955 83.9231 111.708 83.2454C110.03 82.3341 108.857 80.5456 108.685 78.6373C108.565 80.0403 107.788 81.3724 106.628 82.1632C105.725 82.7794 104.635 83.0635 103.552 83.2028C102.468 83.3422 101.372 83.3475 100.286 83.4629C99.6773 83.5276 99.0703 83.627 98.458 83.6339C97.8457 83.6413 97.2184 83.5498 96.6801 83.2562C96.2308 83.0112 95.8573 82.6279 95.6229 82.1713C95.3885 81.7147 95.2942 81.1867 95.3559 80.6767C95.4176 80.1667 95.6352 79.6768 95.9717 79.29C96.3082 78.9032 96.7623 78.6211 97.257 78.4915C95.3296 78.3093 93.3569 78.634 91.588 79.4246C90.9432 79.7128 90.3086 80.0665 89.6081 80.1518C89.0447 80.2205 88.4605 80.105 87.9649 79.8271C87.4692 79.5493 87.0646 79.1104 86.8267 78.5925" stroke="black" stroke-width="5.6606" stroke-linecap="round" stroke-linejoin="round"/>
<path d="M120.693 58.8867C119.214 59.2198 117.8 59.8393 116.551 60.7019C114.837 61.8854 113.459 63.5021 112.286 65.2274C110.473 67.893 106.686 69.2179 105.314 72.1368C104.134 74.6469 102.084 81.2433 101.033 83.8107C100.803 84.3719 100.582 84.9374 100.366 85.5043C100.413 85.5105 100.46 85.5117 100.507 85.5167C100.369 85.6443 100.306 85.6627 100.366 85.5043C100.364 85.5041 100.363 85.5038 100.361 85.5035L97.5684 92.2628L103.366 92.5518C103.573 91.806 105.234 93.9764 105.446 93.2323C105.798 92.0002 105.151 88.8313 105.439 86.6353C105.525 85.9792 106.27 83.5356 106.201 82.2659C106.141 81.1546 105.261 81.9489 105.261 81.9489C105.261 81.9489 108.095 74.6438 110.186 71.3645C113.111 66.7768 115.91 61.6751 120.693 58.8867ZM137.849 122.275C137.358 125.246 136.692 128.188 135.855 131.08C135.049 133.867 134.079 136.619 132.716 139.178C130.961 142.475 128.571 145.411 125.827 147.935C123.689 149.901 121.336 151.624 118.866 153.148C117.15 154.207 115.366 155.176 113.464 155.843C112.165 156.298 110.816 156.609 109.452 156.791C106.471 157.188 103.388 156.958 100.552 155.952C99.624 155.623 98.724 155.212 97.8666 154.726C98.5606 157.095 100.049 159.222 102.033 160.679C104.849 162.746 108.538 163.397 111.99 162.909C115.943 162.351 119.598 160.405 122.747 157.94C126.372 155.103 129.437 151.538 131.664 147.499C133.602 143.981 134.896 140.136 135.852 136.231C136.971 131.66 137.642 126.978 137.849 122.275ZM125.898 99.83L131.596 97.9828C131.596 97.9828 131.971 98.0466 132.318 98.1405C132.664 98.2343 136.723 96.7957 136.723 96.7957L137.604 98.2857L132.128 99.8206L126.037 101.699L125.898 99.83ZM145.488 93.8463C145.488 93.8463 148.644 91.255 150.221 89.9588C151.799 88.6625 154.372 85.0341 154.372 85.0341L154.085 88.1174L149.601 93.5458L146.71 95.38L145.488 93.8463ZM82.4668 125.703L82.8399 128.55C82.8399 128.55 84.5975 129.203 85.501 129.446C86.9488 129.836 89.9078 130.346 89.9078 130.346L89.155 126.894C89.155 126.894 91.8823 127.681 93.2789 127.915C95.4567 128.28 97.867 127.587 99.8764 128.506C100.674 128.871 101.772 130.337 101.772 130.337L96.4443 131.23C96.4443 131.23 105.327 132.48 109.752 132.063C112.491 131.805 115.502 131.611 117.752 130.018C120.25 128.249 122.918 123.902 122.872 122.374L115.748 127.495L108.9 129.387L95.1172 127.359L82.4668 125.703Z" fill="black" fill-opacity="0.19007"/>
<path d="M82.0898 125.845C82.5204 127.989 83.0429 130.113 83.6553 132.211C84.4942 135.085 85.5017 137.908 86.6321 140.68C87.848 143.66 89.2102 146.589 90.8901 149.333C91.7943 150.809 92.81 152.252 94.1666 153.323C95.9912 154.764 98.2938 155.427 100.555 155.951C103.472 156.628 106.479 157.127 109.455 156.79C114.23 156.248 118.504 153.611 122.358 150.726C125.002 148.747 127.555 146.599 129.621 144.016C132.627 140.257 134.497 135.704 135.858 131.078C136.707 128.19 137.374 125.247 137.851 122.274" stroke="black" stroke-width="5.18476" stroke-linecap="round" stroke-linejoin="bevel"/>
<path d="M79.1956 88.756C79.5883 88.5021 80.0038 88.2838 80.4353 88.1046C81.654 87.5988 82.9852 87.412 84.3036 87.4003C85.6221 87.388 86.9356 87.5472 88.2442 87.7092C91.7381 88.1418 95.2357 88.5448 98.7415 88.8636L116.579 90.4856C118.221 90.5972 119.833 91.1215 121.229 91.9976C122.681 92.9089 123.895 94.1996 124.717 95.7087C126.063 98.1797 126.316 101.081 126.563 103.887C126.937 108.12 127.334 112.551 125.708 116.474C125.248 117.584 124.635 118.624 123.968 119.622C123.267 120.67 122.505 121.675 121.685 122.632C112.248 125.259 101.7 123.52 93.593 118C85.4861 112.48 79.969 103.278 78.8988 93.4969C78.7919 92.5196 78.7271 91.5377 78.7046 90.5549L79.1956 88.756Z" fill="black"/>
<path d="M118.201 105.846C118.802 105.456 119.414 105.082 120.036 104.724C122.48 103.319 125.07 102.173 127.742 101.281C133.57 99.334 139.818 98.5747 145.319 95.83C149.371 93.8085 152.987 90.609 154.739 86.4184C154.782 86.3151 154.824 86.2114 154.865 86.1072L154.24 83.8312C154.903 83.6983 155.603 83.762 156.231 84.0124C156.859 84.2627 157.413 84.6987 157.805 85.2517C158.336 86.0015 158.557 86.9303 158.652 87.8457C158.811 89.3676 158.652 90.908 158.361 92.4098C158.133 93.5863 157.824 94.7467 157.436 95.8801C156.559 97.8305 155.355 99.6317 153.89 101.185C149.973 105.336 144.446 107.513 138.997 109.17C134.863 110.428 130.659 111.461 126.402 112.203C124.419 112.549 122.383 112.845 120.595 113.775C120.108 114.028 119.644 114.327 119.211 114.665C118.676 114.815 118.089 114.769 117.583 114.538C116.881 114.217 116.369 113.566 116.073 112.851C115.737 112.04 115.653 111.139 115.737 110.266C115.833 109.257 116.153 108.266 116.702 107.416C117.097 106.804 117.609 106.268 118.201 105.846Z" fill="url(#paint3_linear_2001_150)" stroke="black" stroke-width="5.18476" stroke-linecap="round" stroke-linejoin="round"/>
<path d="M145.872 107.356C145.336 108.889 144.853 110.44 144.424 112.006C144.217 112.762 144.018 113.53 143.639 114.215C143.45 114.558 143.215 114.878 142.928 115.143C142.64 115.407 142.297 115.616 141.923 115.725C141.523 115.842 141.09 115.843 140.69 115.728C140.29 115.612 139.924 115.382 139.646 115.07C139.368 114.759 139.18 114.367 139.11 113.955C139.04 113.543 139.088 113.111 139.247 112.724" stroke="black" stroke-width="5.18476" stroke-linecap="round" stroke-linejoin="round"/>
<path d="M120.241 107.994C119.841 108.33 119.588 108.837 119.56 109.359C119.53 109.922 119.763 110.493 120.177 110.873" stroke="black" stroke-width="2.56974" stroke-linecap="round" stroke-linejoin="bevel"/>
<path d="M107.85 71.4181C106.645 73.4613 105.528 75.5594 104.566 77.7286C103.399 80.3593 102.462 83.0857 101.455 85.7822C100.892 87.2891 100.302 88.798 99.4488 90.1604C99.1724 90.602 98.8676 91.0286 98.5026 91.3997C97.8188 92.0948 96.9279 92.5798 95.9768 92.784C94.6695 93.0648 93.3081 92.8208 92.0158 92.4768C91.4925 92.3376 90.9638 92.1775 90.5174 91.8697C90.2943 91.7159 90.0941 91.5254 89.9439 91.2991C89.7938 91.0728 89.6951 90.8097 89.6772 90.5383C89.656 90.2169 89.7526 89.8868 89.9535 89.6358C90.1427 89.3997 90.4116 89.2422 90.6857 89.1156C90.9597 88.9891 91.2461 88.8875 91.5072 88.7357C91.8809 88.5185 92.1918 88.2037 92.4465 87.8534C93.2674 86.7241 93.4975 85.2837 93.7751 83.9132C94.3602 81.0252 95.256 78.2081 96.2939 75.4515C97.2466 72.9207 98.3233 70.4296 99.6744 68.0891C100.771 66.1886 102.051 64.3878 103.559 62.7971C106.442 59.7561 110.127 57.5342 114.072 56.1462C116.377 55.3351 118.778 54.7996 121.208 54.5544L132.27 55.3963L129.699 56.8497C127.634 56.8842 125.572 57.1347 123.559 57.5959C121.154 58.1464 118.794 59.0101 116.759 60.4091C114.481 61.9753 112.69 64.1533 111.085 66.4101C109.933 68.0298 108.86 69.7053 107.85 71.4181Z" fill="url(#paint4_linear_2001_150)" stroke="black" stroke-width="5.18476" stroke-linecap="round" stroke-linejoin="round"/>
<path d="M65.6255 100.898C65.6721 100.048 65.7594 99.201 65.8867 98.3596C66.0924 97.0008 66.4118 95.6347 67.0978 94.4455C67.7053 93.3926 68.5829 92.5138 69.5667 91.804C70.5708 91.0796 71.6856 90.5244 72.8182 90.027C73.6981 89.6405 74.5947 89.286 75.5232 89.0395C76.0302 88.9049 76.5455 88.8029 77.0636 88.7213C78.0485 88.5663 79.0439 88.4849 80.0402 88.4469C80.7876 88.4184 81.536 88.4142 82.2838 88.4344L115.742 92.0339C117.288 92.1873 118.795 92.7201 120.096 93.5731C122.589 95.207 124.258 98.0468 124.479 101.029L124.616 114.502C124.63 115.949 124.502 117.413 124.003 118.771C123.417 120.368 122.456 121.807 121.334 123.081C120.225 124.341 118.948 125.455 117.522 126.334C115.439 127.618 113.052 128.372 110.624 128.64C108.195 128.908 105.742 128.678 103.315 128.404L75.7305 125.287C72.9293 125.047 70.2618 123.527 68.6188 121.234C67.6491 119.881 67.03 118.277 66.8385 116.621L65.6255 100.898Z" fill="url(#paint5_linear_2001_150)" stroke="black" stroke-width="5.18476" stroke-linecap="round" stroke-linejoin="bevel"/>
<path d="M93.2681 89.7137C93.5399 89.8666 93.8358 89.9762 94.1412 90.0375C94.9744 90.2046 95.8754 89.9928 96.5483 89.4717" stroke="black" stroke-width="1.81795" stroke-linecap="round" stroke-linejoin="bevel"/>
<path d="M136.856 98.3322C136.614 97.0958 136.777 95.7827 137.314 94.6439C137.85 93.505 138.758 92.5463 139.863 91.9508C140.754 91.4703 141.8 91.225 142.791 91.4305C143.7 91.619 144.523 92.1931 145.017 92.9828C145.511 93.7725 145.669 94.767 145.445 95.6721" stroke="black" stroke-width="5.18476" stroke-linecap="round" stroke-linejoin="round"/>
<path d="M90.2427 135.766C91.5717 136.212 92.9189 136.604 94.2796 136.941C96.8667 137.581 99.5217 138.021 102.185 137.948C103.257 137.919 104.326 137.806 105.381 137.612" stroke="black" stroke-width="4.41789" stroke-linecap="round" stroke-linejoin="round"/>
<path d="M89.4283 127.405C89.27 127.828 89.2483 128.301 89.3673 128.737C89.4863 129.173 89.7454 129.569 90.0964 129.851C90.4981 130.175 91.0003 130.342 91.4975 130.476C92.5686 130.764 93.6736 130.923 94.782 130.952C97.0554 131.01 99.3409 130.508 101.383 129.502" stroke="black" stroke-width="5.18476" stroke-linecap="round" stroke-linejoin="round"/>
<path d="M97.6832 155.164C96.9881 158.656 97.7399 162.416 99.7235 165.368C101.399 167.862 103.893 169.746 106.653 170.914C109.413 172.081 112.431 172.556 115.426 172.558C121.355 172.562 127.202 170.729 132.381 167.829C137.784 164.804 142.587 160.538 145.696 155.166C148.25 150.753 149.611 145.651 149.595 140.545" stroke="black" stroke-width="5.18476" stroke-linecap="round" stroke-linejoin="round"/>
<path d="M133.435 57.0623C133.141 55.7509 132.334 54.563 131.226 53.81C130.075 53.0282 128.603 52.7262 127.248 53.0352C125.894 53.3442 124.683 54.2715 124.065 55.5218C123.405 56.859 123.458 58.5273 124.202 59.8193" fill="url(#paint6_linear_2001_150)"/>
<path d="M133.435 57.0623C133.141 55.7509 132.334 54.563 131.226 53.81C130.075 53.0282 128.603 52.7262 127.248 53.0352C125.894 53.3442 124.683 54.2715 124.065 55.5218C123.405 56.859 123.458 58.5273 124.202 59.8193" stroke="black" stroke-width="5.18476" stroke-linecap="round" stroke-linejoin="round"/>
<path d="M148.401 126.447C147.544 127.095 146.377 127.307 145.349 127.001C144.321 126.694 143.456 125.878 143.089 124.866C142.865 124.247 142.821 123.568 142.933 122.92C143.045 122.271 143.311 121.654 143.679 121.11C144.047 120.567 144.517 120.095 145.056 119.726C144.455 120.145 143.669 120.285 142.961 120.098C142.253 119.911 141.637 119.4 141.319 118.737C141.081 118.242 141.009 117.669 141.116 117.13C141.223 116.591 141.509 116.09 141.917 115.724" fill="url(#paint7_linear_2001_150)"/>
<path d="M148.401 126.447C147.544 127.095 146.377 127.307 145.349 127.001C144.321 126.694 143.456 125.878 143.089 124.866C142.865 124.247 142.821 123.568 142.933 122.92C143.045 122.271 143.311 121.654 143.679 121.11C144.047 120.567 144.517 120.095 145.056 119.726C144.455 120.145 143.669 120.285 142.961 120.098C142.253 119.911 141.637 119.4 141.319 118.737C141.081 118.242 141.009 117.669 141.116 117.13C141.223 116.591 141.509 116.09 141.917 115.724" stroke="black" stroke-width="5.18476" stroke-linecap="round" stroke-linejoin="round"/>
<defs>
<linearGradient id="paint0_linear_2001_150" x1="124.717" y1="45.8403" x2="124.717" y2="205.075" gradientUnits="userSpaceOnUse">
<stop stop-color="#409B9B"/>
<stop offset="1" stop-color="#9868BF"/>
</linearGradient>
<linearGradient id="paint1_linear_2001_150" x1="120.473" y1="46.6951" x2="120.473" y2="126.468" gradientUnits="userSpaceOnUse">
<stop stop-color="#409B9B"/>
<stop offset="1" stop-color="#9868BF"/>
</linearGradient>
<linearGradient id="paint2_linear_2001_150" x1="110.333" y1="78.4421" x2="110.333" y2="100.284" gradientUnits="userSpaceOnUse">
<stop stop-color="#409B9B"/>
<stop offset="1" stop-color="#9868BF"/>
</linearGradient>
<linearGradient id="paint3_linear_2001_150" x1="137.211" y1="83.7634" x2="137.211" y2="114.752" gradientUnits="userSpaceOnUse">
<stop stop-color="#409B9B"/>
<stop offset="1" stop-color="#9868BF"/>
</linearGradient>
<linearGradient id="paint4_linear_2001_150" x1="110.972" y1="54.5544" x2="110.972" y2="92.9065" gradientUnits="userSpaceOnUse">
<stop stop-color="#409B9B"/>
<stop offset="1" stop-color="#9868BF"/>
</linearGradient>
<linearGradient id="paint5_linear_2001_150" x1="95.1211" y1="88.4219" x2="95.1211" y2="128.759" gradientUnits="userSpaceOnUse">
<stop stop-color="#409B9B"/>
<stop offset="1" stop-color="#9868BF"/>
</linearGradient>
<linearGradient id="paint6_linear_2001_150" x1="128.52" y1="52.9158" x2="128.52" y2="59.8193" gradientUnits="userSpaceOnUse">
<stop stop-color="#409B9B"/>
<stop offset="1" stop-color="#9868BF"/>
</linearGradient>
<linearGradient id="paint7_linear_2001_150" x1="144.734" y1="115.724" x2="144.734" y2="127.139" gradientUnits="userSpaceOnUse">
<stop stop-color="#409B9B"/>
<stop offset="1" stop-color="#9868BF"/>
</linearGradient>
</defs>
</svg>
