<svg width="179" height="179" viewBox="0 0 179 179" fill="none" xmlns="http://www.w3.org/2000/svg">
<path d="M82.825 0.76324C131.977 -2.7023 174.716 34.3349 178.299 83.4914C181.88 132.65 144.937 175.309 95.7903 178.775C46.6386 182.241 3.89896 145.204 0.316742 96.0473C-3.26428 46.8886 33.6786 4.22961 82.825 0.76324ZM15.274 66.381C11.6749 78.2207 10.9494 90.5665 13.1117 103.418C14.9782 114.502 19.2817 124.99 26.0294 134.868C37.2637 151.325 54.1891 161.979 73.8614 166.006C81.8557 167.642 90.1458 167.712 98.4078 167.025C104.55 166.505 110.727 165.036 116.946 162.617C131.913 156.787 144.014 147.269 153.262 134.05C161.425 122.377 165.99 109.754 166.94 96.1813C167.807 83.8148 165.891 71.885 161.2 60.3849C152.938 40.123 136.548 24.2975 115.713 16.804C111.403 15.2513 106.775 13.9897 101.831 13.0123C100.162 12.6865 98.929 12.5132 98.126 12.4855C94.724 12.3677 92.1954 11.8408 88.723 11.9171C84.0673 12.0072 79.8694 12.3261 76.1152 12.8668C72.9457 13.3173 69.3676 14.3502 66.4587 15.1682C56.619 17.9479 47.8992 22.5576 40.2852 28.9834C34.3124 34.0229 29.213 39.6655 24.9869 45.9112C20.7609 52.1637 17.5209 58.9847 15.274 66.381Z" fill="white"/>
<path d="M37.5812 121.354C37.3668 120.842 37.2629 120.005 37.2694 118.829C37.3019 107.056 37.3019 87.895 37.2563 61.3524C37.2498 57.1003 38.9979 54.2235 42.5005 52.722C42.7084 52.6356 42.9229 52.5891 43.1438 52.5891H135.607C135.731 52.5891 135.848 52.6025 135.965 52.6356C138.57 53.393 140.26 54.9211 141.04 57.2266C141.241 57.8312 141.345 60.1632 141.339 64.2359C141.313 93.8081 141.319 111.733 141.358 117.999C141.365 118.975 141.319 120.065 141.222 121.267C141.202 121.507 141.15 121.739 141.053 121.952C139.929 124.53 137.888 126.191 134.945 126.928C134.893 126.941 134.84 126.948 134.789 126.948H43.8651C43.7676 126.948 43.6767 126.935 43.5791 126.908C40.7914 126.091 38.7899 124.244 37.5812 121.354ZM89.4307 94.4858C90.438 94.4858 91.8157 93.4161 92.6474 92.7051C99.7305 86.626 107.535 79.7096 116.054 71.9495C121.298 67.1725 125.73 63.2725 129.356 60.2363C129.479 60.13 129.415 59.924 129.252 59.924C128.277 59.8974 115.008 59.8775 89.4503 59.8642C63.8926 59.8509 50.6232 59.8575 49.6421 59.8775C49.4861 59.8775 49.4146 60.0835 49.5381 60.1898C53.1641 63.2261 57.5959 67.1393 62.8271 71.9163C71.3398 79.6897 79.1377 86.6126 86.2142 92.6985C87.046 93.4161 88.4235 94.4858 89.4307 94.4858ZM44.9048 65.6511C44.7683 65.5248 44.5474 65.6245 44.5474 65.8105V115.361C44.5474 115.547 44.7683 115.647 44.9048 115.52L72.0284 90.7518C72.1194 90.6588 72.1194 90.5127 72.0284 90.4197L44.9048 65.6511ZM107.08 89.8084C106.983 89.8948 106.976 90.0543 107.08 90.1473L133.989 114.982C134.132 115.109 134.36 115.009 134.36 114.816V66.1094C134.36 65.9101 134.139 65.8105 133.996 65.9368L107.08 89.8084ZM51.3511 119.925H128.024C128.329 119.925 128.453 119.533 128.212 119.347C127.868 119.095 127.517 118.822 127.16 118.537C125.334 117.055 118.998 111.295 108.159 101.256C106.04 99.2827 104.071 97.1102 101.992 95.2897C101.771 95.0904 101.439 95.1037 101.225 95.3096C98.7751 97.7081 94.3694 101.655 91.2697 102.233C89.2488 102.611 87.7542 102.545 86.773 102.033C83.9982 100.592 81.2235 98.5519 78.4486 95.9076C78.0587 95.5356 77.4544 95.5289 77.0645 95.8943L51.2275 119.6C51.1041 119.713 51.1821 119.925 51.3511 119.925Z" fill="white"/>
</svg>
