<svg width="40" height="40" viewBox="0 0 40 40" fill="none" xmlns="http://www.w3.org/2000/svg">
<path d="M18.547 0.0503561C29.5638 -0.726402 39.1433 7.57503 39.9462 18.5929C40.7489 29.6112 32.4686 39.1727 21.453 39.9496C10.4362 40.7264 0.856669 32.425 0.0537567 21.4071C-0.748887 10.3888 7.53142 0.827301 18.547 0.0503561ZM3.40626 14.7578C2.59954 17.4115 2.43693 20.1787 2.92159 23.0592C3.33995 25.5436 4.30452 27.8944 5.81693 30.1084C8.33498 33.7969 12.1286 36.1849 16.5379 37.0876C18.3297 37.4543 20.1879 37.4698 22.0397 37.316C23.4163 37.1995 24.8008 36.8701 26.1948 36.3279C29.5495 35.0212 32.2618 32.888 34.3346 29.925C36.1643 27.3086 37.1873 24.4793 37.4005 21.4372C37.5946 18.6654 37.1652 15.9914 36.1138 13.4138C34.262 8.87236 30.5883 5.32527 25.9185 3.6457C24.9524 3.29767 23.9152 3.0149 22.8069 2.79584C22.4328 2.72282 22.1565 2.68398 21.9765 2.67776C21.214 2.65135 20.6472 2.53327 19.8689 2.55036C18.8254 2.57056 17.8845 2.64203 17.0431 2.76322C16.3327 2.86421 15.5307 3.09571 14.8787 3.27905C12.6732 3.90208 10.7188 4.93529 9.01221 6.37558C7.67347 7.50512 6.53051 8.76983 5.58329 10.1697C4.63607 11.5712 3.90986 13.1 3.40626 14.7578Z" fill="white"/>
<path d="M8.40614 27.0793C8.35808 26.9646 8.33479 26.777 8.33624 26.5134C8.34353 23.8746 8.34353 19.5799 8.33332 13.6307C8.33186 12.6776 8.72366 12.0328 9.50873 11.6963C9.55534 11.6769 9.6034 11.6665 9.65292 11.6665H30.3775C30.4052 11.6665 30.4314 11.6695 30.4576 11.6769C31.0417 11.8467 31.4203 12.1892 31.5951 12.7059C31.6403 12.8414 31.6636 13.3641 31.6621 14.277C31.6563 20.9052 31.6578 24.923 31.6665 26.3273C31.668 26.5462 31.6578 26.7904 31.6359 27.0599C31.6316 27.1136 31.6199 27.1657 31.5981 27.2133C31.3461 27.7911 30.8887 28.1634 30.2289 28.3287C30.2173 28.3317 30.2056 28.3332 30.194 28.3332H9.8146C9.79275 28.3332 9.77236 28.3302 9.75049 28.3242C9.12567 28.1411 8.67705 27.7271 8.40614 27.0793ZM20.0276 21.0571C20.2533 21.0571 20.5621 20.8174 20.7486 20.658C22.3362 19.2955 24.0854 17.7452 25.9949 16.0059C27.1703 14.9352 28.1636 14.0611 28.9764 13.3805C29.004 13.3567 28.9895 13.3105 28.953 13.3105C28.7346 13.3046 25.7604 13.3001 20.032 13.2971C14.3035 13.2941 11.3293 13.2956 11.1094 13.3001C11.0745 13.3001 11.0584 13.3463 11.0861 13.3701C11.8989 14.0506 12.8922 14.9278 14.0647 15.9985C15.9727 17.7408 17.7205 19.2925 19.3066 20.6565C19.4931 20.8174 19.8018 21.0571 20.0276 21.0571ZM10.0476 14.5942C10.017 14.5659 9.96751 14.5882 9.96751 14.6299V25.7361C9.96751 25.7778 10.017 25.8001 10.0476 25.7718L16.1271 20.2202C16.1475 20.1994 16.1475 20.1666 16.1271 20.1458L10.0476 14.5942ZM23.9835 20.0088C23.9616 20.0281 23.9601 20.0639 23.9835 20.0847L30.0148 25.6512C30.0469 25.6795 30.0978 25.6571 30.0978 25.614V14.6969C30.0978 14.6522 30.0483 14.6299 30.0163 14.6582L23.9835 20.0088ZM11.4925 26.7591H28.6778C28.7462 26.7591 28.7739 26.6712 28.72 26.6296C28.6428 26.573 28.5641 26.5119 28.4841 26.4479C28.0748 26.1158 26.6547 24.8247 24.2252 22.5746C23.7504 22.1323 23.3091 21.6454 22.843 21.2373C22.7935 21.1927 22.7192 21.1956 22.6711 21.2418C22.122 21.7794 21.1345 22.6639 20.4398 22.7935C19.9868 22.8784 19.6518 22.8635 19.4319 22.7488C18.8099 22.4257 18.188 21.9685 17.5661 21.3758C17.4787 21.2924 17.3432 21.2909 17.2558 21.3728L11.4648 26.6861C11.4371 26.7115 11.4546 26.7591 11.4925 26.7591Z" fill="white"/>
</svg>
