<svg width="250" height="250" viewBox="0 0 250 250" fill="none" xmlns="http://www.w3.org/2000/svg">
<path opacity="0.42" d="M246 125C246 191.826 191.826 246 125 246C58.1735 246 4 191.826 4 125C4 58.1735 58.1735 3.99997 125 3.99997C191.826 3.99997 246 58.1735 246 125Z" fill="black"/>
<path d="M216.474 74.1494V174.678L129.414 224.94L42.3545 174.678V74.1494L129.414 23.8867L216.474 74.1494Z" fill="#4099AA" stroke="#050433" stroke-width="5"/>
<line x1="43.2321" y1="71.4877" x2="129.335" y2="127.978" stroke="#050433" stroke-width="10"/>
<path d="M216.5 74.5664L132.352 128.702" stroke="#050433" stroke-width="10"/>
<line x1="131.136" y1="119.002" x2="130" y2="223.121" stroke="#050433" stroke-width="10"/>
<circle cx="129.781" cy="124.414" r="22.7784" fill="#050433"/>
<path d="M119.715 217.445C120.739 215.796 122.168 214.437 123.865 213.496C125.562 212.554 127.472 212.062 129.412 212.066C131.353 212.07 133.26 212.57 134.954 213.518C136.647 214.467 138.07 215.832 139.087 217.484L129.389 223.456L119.715 217.445Z" fill="#050433"/>
<path d="M43.9262 162.175C45.8659 162.238 47.7574 162.795 49.4212 163.794C51.085 164.793 52.4659 166.201 53.4328 167.883C54.3997 169.566 54.9207 171.468 54.9461 173.409C54.9716 175.349 54.5008 177.264 53.5783 178.971L43.5579 173.558L43.9262 162.175Z" fill="#050433"/>
<path d="M214.19 162.175C212.25 162.238 210.358 162.795 208.695 163.794C207.031 164.793 205.65 166.201 204.683 167.883C203.716 169.566 203.195 171.468 203.17 173.409C203.144 175.349 203.615 177.264 204.537 178.971L214.558 173.558L214.19 162.175Z" fill="#050433"/>
<path d="M43.9262 85.9412C45.8659 85.8784 47.7574 85.3211 49.4212 84.322C51.085 83.3229 52.4659 81.9152 53.4328 80.2325C54.3997 78.5498 54.9207 76.648 54.9461 74.7074C54.9716 72.7669 54.5008 70.852 53.5783 69.1445L43.5579 74.558L43.9262 85.9412Z" fill="#050433"/>
<path d="M214.19 86.9412C212.25 86.8784 210.358 86.3211 208.695 85.322C207.031 84.3229 205.65 82.9152 204.683 81.2325C203.716 79.5498 203.195 77.648 203.17 75.7074C203.144 73.7669 203.615 71.852 204.537 70.1445L214.558 75.558L214.19 86.9412Z" fill="#050433"/>
<path d="M79.7045 111.248V149.066H69.4375V111.248H79.7045ZM87.1703 149.066V111.248H103.494C106.301 111.248 108.757 111.802 110.862 112.91C112.967 114.018 114.604 115.575 115.774 117.582C116.944 119.589 117.528 121.934 117.528 124.618C117.528 127.326 116.925 129.671 115.719 131.653C114.524 133.635 112.844 135.162 110.677 136.233C108.523 137.304 106.006 137.839 103.125 137.839H93.3749V129.862H101.057C102.263 129.862 103.291 129.653 104.14 129.234C105.002 128.803 105.661 128.194 106.116 127.406C106.584 126.618 106.818 125.689 106.818 124.618C106.818 123.534 106.584 122.611 106.116 121.848C105.661 121.072 105.002 120.481 104.14 120.075C103.291 119.656 102.263 119.447 101.057 119.447H97.4374V149.066H87.1703ZM123.895 149.066V111.248H150.486V119.521H134.162V126.021H148.861V134.294H134.162V149.066H123.895ZM177.249 123.066C177.15 121.835 176.689 120.875 175.864 120.186C175.051 119.496 173.814 119.152 172.152 119.152C171.094 119.152 170.226 119.281 169.549 119.539C168.884 119.786 168.391 120.124 168.071 120.555C167.751 120.986 167.585 121.478 167.573 122.032C167.548 122.488 167.628 122.9 167.813 123.27C168.01 123.627 168.318 123.953 168.736 124.248C169.155 124.531 169.69 124.79 170.343 125.024C170.995 125.258 171.771 125.467 172.669 125.652L175.772 126.316C177.864 126.76 179.656 127.344 181.145 128.071C182.635 128.797 183.854 129.653 184.801 130.637C185.749 131.61 186.445 132.706 186.888 133.924C187.344 135.143 187.577 136.473 187.59 137.913C187.577 140.4 186.956 142.505 185.725 144.228C184.494 145.952 182.733 147.263 180.443 148.162C178.166 149.06 175.427 149.51 172.226 149.51C168.939 149.51 166.071 149.023 163.621 148.051C161.184 147.078 159.288 145.583 157.934 143.564C156.592 141.532 155.915 138.935 155.902 135.771H165.652C165.714 136.928 166.003 137.901 166.52 138.689C167.037 139.476 167.764 140.074 168.699 140.48C169.647 140.886 170.773 141.089 172.078 141.089C173.174 141.089 174.091 140.954 174.83 140.683C175.568 140.412 176.129 140.037 176.51 139.556C176.892 139.076 177.089 138.529 177.101 137.913C177.089 137.334 176.898 136.83 176.529 136.399C176.172 135.956 175.581 135.562 174.756 135.217C173.931 134.86 172.817 134.528 171.414 134.22L167.647 133.407C164.298 132.681 161.657 131.468 159.725 129.77C157.804 128.058 156.85 125.725 156.863 122.771C156.85 120.37 157.49 118.271 158.783 116.474C160.088 114.664 161.891 113.255 164.193 112.245C166.508 111.236 169.161 110.731 172.152 110.731C175.205 110.731 177.846 111.242 180.074 112.264C182.302 113.286 184.02 114.726 185.226 116.585C186.445 118.431 187.06 120.592 187.073 123.066H177.249Z" fill="white"/>
<path d="M139.063 32.3998C138.039 34.0483 136.611 35.4077 134.913 36.349C133.216 37.2903 131.307 37.7823 129.366 37.7784C127.425 37.7745 125.518 37.2747 123.825 36.3264C122.131 35.3782 120.708 34.013 119.691 32.3604L129.389 26.3892L139.063 32.3998Z" fill="#050433"/>
</svg>
