<svg width="77" height="77" viewBox="0 0 77 77" fill="none" xmlns="http://www.w3.org/2000/svg">
<g filter="url(#filter0_ddd_48_2792)">
<path d="M72.0813 34.0406C72.0813 52.8438 56.8437 68.0813 38.0406 68.0813C19.2375 68.0813 4 52.8438 4 34.0406C4 27.1958 6.02213 20.8208 9.50269 15.4836C9.54295 15.5194 9.58322 15.5507 9.62795 15.5775C11.6277 16.942 14.2404 16.8883 15.8643 16.6736C15.1843 14.4546 13.7841 12.7636 12.4598 11.587C12.6477 11.3678 12.8401 11.1575 13.0369 10.9472C13.2069 11.0591 13.3769 11.1799 13.538 11.3007C13.6991 11.4214 13.8556 11.5422 14.0077 11.672C14.1509 11.7883 14.2896 11.9091 14.4193 12.0299C14.5714 12.1686 14.7146 12.3028 14.8488 12.4415C14.9741 12.5667 15.0949 12.692 15.2067 12.8173C15.7659 13.4257 16.2088 14.0252 16.5354 14.5173C16.6249 14.6515 16.7054 14.7767 16.777 14.8931C17.0409 15.3225 17.1975 15.6312 17.2422 15.7252C17.2467 15.7297 17.2467 15.7341 17.2512 15.7386C17.2244 15.5865 17.1796 15.4075 17.1215 15.2107C17.0991 15.1168 17.0678 15.0139 17.0365 14.9065C17.0186 14.8483 17.0051 14.7902 16.9828 14.732C16.9649 14.6739 16.947 14.6157 16.9291 14.5575C16.8933 14.4412 16.853 14.3204 16.8083 14.1952C16.7501 14.0117 16.6786 13.8238 16.6025 13.627C16.5578 13.5196 16.5175 13.4123 16.4683 13.3004C16.4593 13.2736 16.4459 13.2423 16.4325 13.2154C16.4012 13.1483 16.3743 13.0767 16.343 13.0096C16.2804 12.8709 16.2178 12.7323 16.1507 12.5936C15.9985 12.2849 15.833 11.9672 15.6451 11.6541C15.4975 11.408 15.3364 11.162 15.1664 10.9249C15.1664 10.9204 15.162 10.9159 15.162 10.9159C15.077 10.7996 14.992 10.6922 14.907 10.5804C14.9025 10.5759 14.898 10.567 14.8935 10.5625C14.8577 10.5222 14.8264 10.4819 14.7951 10.4417C14.7101 10.3388 14.6206 10.2359 14.5312 10.1375C14.4775 10.0749 14.4148 10.0122 14.3567 9.95406C14.2985 9.89143 14.2359 9.8288 14.1777 9.77064C18.1191 5.89191 23.0044 2.96609 28.4579 1.37344C23.4921 2.95267 19.1391 6.9835 18.2936 15.9668C13.4306 20.9192 10.4243 27.7014 10.4243 35.177C10.4243 50.3027 22.7315 62.6099 37.8572 62.6099C52.9829 62.6099 65.2946 50.3027 65.2946 35.177C65.2946 21.8095 55.6895 10.6564 43.0199 8.23167L42.6844 8.18246C42.2951 8.79984 41.9955 10.0256 41.9955 10.0256C54.0879 12.012 63.3486 22.5297 63.3486 35.177C63.3486 48.8934 52.455 60.1091 38.8683 60.6415V53.4567L39.9778 53.0093V49.4795L44.5813 46.4597C44.9391 46.2271 45.1539 45.8245 45.1539 45.395V37.2349C45.1539 36.8412 45.3373 36.4699 45.646 36.2283L46.5407 35.5394C46.8494 35.2978 47.0329 34.9264 47.0329 34.5372V32.193C47.0329 31.4906 46.4647 30.918 45.7623 30.918H43.8207V22.1986C43.8207 21.4963 43.2526 20.9281 42.5501 20.9281C41.8477 20.9281 41.2796 21.4963 41.2796 22.1986V30.918H34.4348V22.1986C34.4348 21.4963 33.8666 20.9281 33.1643 20.9281C32.4619 20.9281 31.8937 21.4963 31.8937 22.1986V30.918H29.9565C29.2542 30.918 28.686 31.4906 28.686 32.193V34.5372C28.686 34.9264 28.865 35.2978 29.1781 35.5394L30.0684 36.2283C30.3816 36.4699 30.5605 36.8412 30.5605 37.2349V45.395C30.5605 45.8245 30.7752 46.2271 31.1376 46.4597L35.7366 49.4795V53.0093L36.8461 53.4567V60.6415C23.2594 60.1091 12.3703 48.8934 12.3703 35.177C12.3703 28.359 15.0635 22.1674 19.4388 17.5863C19.5954 17.3626 25.6618 11.0233 33.0569 8.71036C33.0569 8.71036 26.3418 11.7704 22.4497 18.3826C36.8998 23.6437 40.1388 9.40379 40.8725 7.03271C42.1251 3.00635 45.2389 2.30397 45.2389 2.30397C45.2389 2.30397 37.3159 -0.626323 30.0416 0.948432C32.605 0.326583 35.2848 0 38.0406 0C56.8437 0 72.0813 15.242 72.0813 34.0406Z" fill="white" fill-opacity="0.75"/>
<path d="M17.2557 15.7476L14.8489 12.4415C14.9741 12.5668 15.0949 12.6921 15.2068 12.8173C15.766 13.4258 16.2089 14.0252 16.5355 14.5173C16.6249 14.6516 16.7055 14.7768 16.7771 14.8931C17.041 15.3226 17.1976 15.6313 17.2423 15.7253C17.2468 15.7297 17.2468 15.7342 17.2513 15.7387C17.2513 15.7431 17.2557 15.7431 17.2557 15.7476Z" fill="white" fill-opacity="0.75"/>
<path d="M17.2421 15.7252L15.2065 12.8173C15.7658 13.4257 16.2087 14.0252 16.5352 14.5173C16.6247 14.6515 16.7052 14.7768 16.7768 14.8931C17.0408 15.3226 17.1974 15.6312 17.2421 15.7252Z" fill="white" fill-opacity="0.75"/>
<path d="M36.56 46.1555L38.1124 40.9078H34.4395L36.5734 35.3872H39.7363L37.8529 39.0422H41.2664L36.56 46.1555Z" fill="white" fill-opacity="0.75"/>
<path d="M28.458 1.3735C28.9591 1.22139 29.4691 1.0827 29.9836 0.961914C29.4691 1.07376 28.9591 1.20797 28.458 1.3735Z" fill="white" fill-opacity="0.75"/>
<path d="M13.8153 9.44404C13.9406 9.55141 14.0614 9.66326 14.1777 9.77063C13.784 10.1509 13.4037 10.5446 13.0369 10.9472C12.0258 10.2806 10.8268 9.74378 9.43999 9.51562C9.43999 9.51562 10.894 10.1912 12.4598 11.587C11.3816 12.8083 10.3929 14.1102 9.50262 15.4836C6.53206 13.3496 7.60571 9.97642 5.02441 7.70823C5.02441 7.70823 10.9834 7.02375 13.8153 9.44404Z" fill="white" fill-opacity="0.75"/>
<path d="M17.2421 15.7253L14.8486 12.4415C14.9739 12.5668 15.0947 12.6921 15.2065 12.8173C15.7657 13.4258 16.2086 14.0252 16.5352 14.5173C16.6247 14.6516 16.7052 14.7768 16.7768 14.8931C17.0408 15.3226 17.1973 15.6313 17.2421 15.7253Z" fill="white" fill-opacity="0.75"/>
<path d="M17.2423 15.7251L15.2068 12.8171C15.766 13.4256 16.2089 14.025 16.5355 14.5172C16.625 14.6514 16.7055 14.7766 16.7771 14.893C17.041 15.3224 17.1976 15.6311 17.2423 15.7251Z" fill="white" fill-opacity="0.75"/>
</g>
<defs>
<filter id="filter0_ddd_48_2792" x="0" y="0" width="76.0813" height="76.0813" filterUnits="userSpaceOnUse" color-interpolation-filters="sRGB">
<feFlood flood-opacity="0" result="BackgroundImageFix"/>
<feColorMatrix in="SourceAlpha" type="matrix" values="0 0 0 0 0 0 0 0 0 0 0 0 0 0 0 0 0 0 127 0" result="hardAlpha"/>
<feOffset dy="4"/>
<feGaussianBlur stdDeviation="2"/>
<feComposite in2="hardAlpha" operator="out"/>
<feColorMatrix type="matrix" values="0 0 0 0 0 0 0 0 0 0 0 0 0 0 0 0 0 0 1 0"/>
<feBlend mode="normal" in2="BackgroundImageFix" result="effect1_dropShadow_48_2792"/>
<feColorMatrix in="SourceAlpha" type="matrix" values="0 0 0 0 0 0 0 0 0 0 0 0 0 0 0 0 0 0 127 0" result="hardAlpha"/>
<feOffset dy="4"/>
<feGaussianBlur stdDeviation="2"/>
<feComposite in2="hardAlpha" operator="out"/>
<feColorMatrix type="matrix" values="0 0 0 0 0 0 0 0 0 0 0 0 0 0 0 0 0 0 0.25 0"/>
<feBlend mode="normal" in2="effect1_dropShadow_48_2792" result="effect2_dropShadow_48_2792"/>
<feColorMatrix in="SourceAlpha" type="matrix" values="0 0 0 0 0 0 0 0 0 0 0 0 0 0 0 0 0 0 127 0" result="hardAlpha"/>
<feOffset dy="4"/>
<feGaussianBlur stdDeviation="2"/>
<feComposite in2="hardAlpha" operator="out"/>
<feColorMatrix type="matrix" values="0 0 0 0 0 0 0 0 0 0 0 0 0 0 0 0 0 0 0.25 0"/>
<feBlend mode="normal" in2="effect2_dropShadow_48_2792" result="effect3_dropShadow_48_2792"/>
<feBlend mode="normal" in="SourceGraphic" in2="effect3_dropShadow_48_2792" result="shape"/>
</filter>
</defs>
</svg>
