<svg width="77" height="77" viewBox="0 0 77 77" fill="none" xmlns="http://www.w3.org/2000/svg">
<g filter="url(#filter0_ddd_48_2795)">
<path d="M38.9596 0C20.161 0 4.91895 15.242 4.91895 34.0406C4.91895 52.8393 20.161 68.0813 38.9596 68.0813C57.7582 68.0813 73.0002 52.8393 73.0002 34.0406C73.0002 15.242 57.7582 0 38.9596 0ZM23.3105 49.4974L24.2007 51.4077C23.9458 51.1885 23.6907 50.9648 23.4447 50.7322C21.2884 48.7279 19.557 46.3524 18.3088 43.6726C17.0607 40.9884 16.3493 38.1386 16.1972 35.1949C16.0407 32.1482 16.497 29.1374 17.5483 26.2474C18.5996 23.3574 20.1878 20.7626 22.2681 18.5257C24.2723 16.3694 26.6479 14.6381 29.3276 13.3899C32.0119 12.1417 34.8617 11.4304 37.8054 11.2783C40.4046 11.1485 42.9815 11.4572 45.4734 12.2043L46.7886 8.58957C46.9989 8.02141 47.7907 7.98562 48.0458 8.53589L52.175 17.3939L53.0653 19.3042C53.0966 19.3668 53.1145 19.4339 53.1234 19.501C53.1324 19.5681 53.1324 19.6352 53.1234 19.6979C53.119 19.7113 53.119 19.7202 53.1145 19.7292C53.1011 19.7963 53.0787 19.8544 53.0474 19.9126C53.0429 19.926 53.0384 19.935 53.034 19.9439C52.9982 19.9976 52.9579 20.0513 52.9087 20.096C52.8595 20.1408 52.8013 20.181 52.7387 20.2079L45.3123 23.675L41.9704 25.2319C41.4202 25.4869 40.8341 24.9545 41.0399 24.3819L42.3194 20.8655C35.6356 19.1565 28.5895 22.7713 26.1827 29.3924C24.2724 34.6357 25.8069 40.3084 29.6229 43.9231L24.4602 46.33C23.2702 46.8847 22.7557 48.3074 23.3105 49.4974ZM60.3709 41.8339C59.3196 44.7239 57.7314 47.3232 55.6511 49.5556C53.6469 51.7164 51.2713 53.4432 48.5915 54.6914C45.9073 55.9396 43.0575 56.6509 40.1138 56.803C38.6733 56.8746 37.2462 56.812 35.8325 56.6151C34.6872 56.4585 33.5598 56.2125 32.4459 55.877L31.1306 59.4917C30.9203 60.0644 30.1284 60.0957 29.8735 59.5454L28.2495 56.0648L24.854 48.7771C24.6929 48.4371 24.8405 48.03 25.1805 47.8734L32.8933 44.2766L35.9489 42.8494C36.4991 42.5944 37.0852 43.1313 36.8794 43.6994L35.5999 47.2158C36.3783 47.4171 37.1612 47.5424 37.9441 47.6005C43.8629 48.0434 49.6072 44.536 51.7367 38.6889C53.647 33.4456 52.1125 27.7729 48.2964 24.1582L53.4591 21.7513C54.6491 21.1966 55.1636 19.7739 54.6088 18.5839L53.7185 16.6736C53.9735 16.8928 54.2285 17.1165 54.4746 17.3491C56.6354 19.3534 58.3623 21.7289 59.6104 24.4132C60.8586 27.0929 61.5699 29.9427 61.722 32.8864C61.8786 35.933 61.4222 38.9439 60.3709 41.8339Z" fill="white" fill-opacity="0.75" shape-rendering="crispEdges"/>
</g>
<defs>
<filter id="filter0_ddd_48_2795" x="0.918945" y="0" width="76.0811" height="76.0813" filterUnits="userSpaceOnUse" color-interpolation-filters="sRGB">
<feFlood flood-opacity="0" result="BackgroundImageFix"/>
<feColorMatrix in="SourceAlpha" type="matrix" values="0 0 0 0 0 0 0 0 0 0 0 0 0 0 0 0 0 0 127 0" result="hardAlpha"/>
<feOffset dy="4"/>
<feGaussianBlur stdDeviation="2"/>
<feComposite in2="hardAlpha" operator="out"/>
<feColorMatrix type="matrix" values="0 0 0 0 0 0 0 0 0 0 0 0 0 0 0 0 0 0 1 0"/>
<feBlend mode="normal" in2="BackgroundImageFix" result="effect1_dropShadow_48_2795"/>
<feColorMatrix in="SourceAlpha" type="matrix" values="0 0 0 0 0 0 0 0 0 0 0 0 0 0 0 0 0 0 127 0" result="hardAlpha"/>
<feOffset dy="4"/>
<feGaussianBlur stdDeviation="2"/>
<feComposite in2="hardAlpha" operator="out"/>
<feColorMatrix type="matrix" values="0 0 0 0 0 0 0 0 0 0 0 0 0 0 0 0 0 0 0.25 0"/>
<feBlend mode="normal" in2="effect1_dropShadow_48_2795" result="effect2_dropShadow_48_2795"/>
<feColorMatrix in="SourceAlpha" type="matrix" values="0 0 0 0 0 0 0 0 0 0 0 0 0 0 0 0 0 0 127 0" result="hardAlpha"/>
<feOffset dy="4"/>
<feGaussianBlur stdDeviation="2"/>
<feComposite in2="hardAlpha" operator="out"/>
<feColorMatrix type="matrix" values="0 0 0 0 0 0 0 0 0 0 0 0 0 0 0 0 0 0 0.25 0"/>
<feBlend mode="normal" in2="effect2_dropShadow_48_2795" result="effect3_dropShadow_48_2795"/>
<feBlend mode="normal" in="SourceGraphic" in2="effect3_dropShadow_48_2795" result="shape"/>
</filter>
</defs>
</svg>
