<svg width="50" height="50" viewBox="0 0 50 50" fill="none" xmlns="http://www.w3.org/2000/svg">
<g clip-path="url(#clip0_2007_198)">
<path d="M22.5845 40.4974C22.5845 40.6183 22.4872 40.7156 22.3663 40.7156C22.2454 40.7156 22.1481 40.6183 22.1481 40.4974C22.1481 40.3765 22.2454 40.2793 22.3663 40.2793C22.4872 40.2793 22.5845 40.3765 22.5845 40.4974Z" fill="white"/>
<path d="M22.5845 14.6097C22.5845 14.7306 22.4872 14.8305 22.3663 14.8305C22.2454 14.8305 22.1481 14.7306 22.1481 14.6097C22.1481 14.4888 22.2454 14.3915 22.3663 14.3915C22.4872 14.3915 22.5845 14.4888 22.5845 14.6097Z" fill="white"/>
<path d="M23.2389 40.4974C23.2389 40.6183 23.1391 40.7156 23.0182 40.7156C22.8972 40.7156 22.8026 40.6183 22.8026 40.4974C22.8026 40.3765 22.8972 40.2793 23.0182 40.2793C23.1391 40.2793 23.2389 40.3765 23.2389 40.4974Z" fill="white"/>
<path d="M23.2389 14.6097C23.2389 14.7306 23.1391 14.8305 23.0182 14.8305C22.8972 14.8305 22.8026 14.7306 22.8026 14.6097C22.8026 14.4888 22.8972 14.3915 23.0182 14.3915C23.1391 14.3915 23.2389 14.4888 23.2389 14.6097Z" fill="white"/>
<path d="M23.8934 40.4974C23.8934 40.6183 23.7935 40.7156 23.6726 40.7156C23.5517 40.7156 23.4544 40.6183 23.4544 40.4974C23.4544 40.3765 23.5517 40.2793 23.6726 40.2793C23.7935 40.2793 23.8934 40.3765 23.8934 40.4974Z" fill="white"/>
<path d="M23.8934 14.6097C23.8934 14.7306 23.7935 14.8305 23.6726 14.8305C23.5517 14.8305 23.4544 14.7306 23.4544 14.6097C23.4544 14.4888 23.5517 14.3915 23.6726 14.3915C23.7935 14.3915 23.8934 14.4888 23.8934 14.6097Z" fill="white"/>
<path d="M24.3271 40.7156C24.2062 40.7156 24.1089 40.6183 24.1089 40.4974C24.1089 40.3765 24.2062 40.2792 24.3271 40.2792C24.448 40.2792 24.5453 40.3765 24.5453 40.4974C24.5453 40.6183 24.448 40.7156 24.3271 40.7156Z" fill="white"/>
<path d="M24.3271 14.8305C24.2062 14.8305 24.1089 14.7306 24.1089 14.6097C24.1089 14.4888 24.2062 14.3915 24.3271 14.3915C24.448 14.3915 24.5453 14.4888 24.5453 14.6097C24.5453 14.7306 24.448 14.8305 24.3271 14.8305Z" fill="white"/>
<path d="M24.9816 40.2793C25.0999 40.2793 25.1998 40.3765 25.1998 40.4974C25.1998 40.6183 25.0999 40.7156 24.9816 40.7156C24.8607 40.7156 24.7634 40.6183 24.7634 40.4974C24.7634 40.3765 24.8607 40.2793 24.9816 40.2793Z" fill="white"/>
<path d="M24.9816 14.3915C25.0999 14.3915 25.1998 14.4888 25.1998 14.6097C25.1998 14.7306 25.0999 14.8305 24.9816 14.8305C24.8607 14.8305 24.7634 14.7306 24.7634 14.6097C24.7634 14.4888 24.8607 14.3915 24.9816 14.3915Z" fill="white"/>
<path d="M25.7307 42.2296C25.7307 42.6449 25.3969 42.9787 24.9816 42.9787C24.5689 42.9787 24.2298 42.6449 24.2298 42.2296C24.2298 41.8169 24.5689 41.4805 24.9816 41.4805C25.3969 41.4805 25.7307 41.8169 25.7307 42.2296Z" fill="white"/>
<path d="M25.7307 16.3418C25.7307 16.7571 25.3969 17.0909 24.9816 17.0909C24.5689 17.0909 24.2298 16.7571 24.2298 16.3418C24.2298 15.9292 24.5689 15.5927 24.9816 15.5927C25.3969 15.5927 25.7307 15.9292 25.7307 16.3418Z" fill="white"/>
<path d="M25.8543 40.4974C25.8543 40.6183 25.7544 40.7156 25.6335 40.7156C25.5152 40.7156 25.4179 40.6183 25.4179 40.4974C25.4179 40.3765 25.5152 40.2793 25.6335 40.2793C25.7544 40.2793 25.8543 40.3765 25.8543 40.4974Z" fill="white"/>
<path d="M25.8543 14.6097C25.8543 14.7306 25.7544 14.8305 25.6335 14.8305C25.5152 14.8305 25.4179 14.7306 25.4179 14.6097C25.4179 14.4888 25.5152 14.3915 25.6335 14.3915C25.7544 14.3915 25.8543 14.4888 25.8543 14.6097Z" fill="white"/>
<path d="M26.5088 40.4974C26.5088 40.6183 26.4089 40.7156 26.288 40.7156C26.1671 40.7156 26.0698 40.6183 26.0698 40.4974C26.0698 40.3765 26.1671 40.2793 26.288 40.2793C26.4089 40.2793 26.5088 40.3765 26.5088 40.4974Z" fill="white"/>
<path d="M26.5088 14.6097C26.5088 14.7306 26.4089 14.8305 26.288 14.8305C26.1671 14.8305 26.0698 14.7306 26.0698 14.6097C26.0698 14.4888 26.1671 14.3915 26.288 14.3915C26.4089 14.3915 26.5088 14.4888 26.5088 14.6097Z" fill="white"/>
<path d="M27.1606 40.4974C27.1606 40.6183 27.0634 40.7156 26.9425 40.7156C26.8215 40.7156 26.7243 40.6183 26.7243 40.4974C26.7243 40.3765 26.8215 40.2793 26.9425 40.2793C27.0634 40.2793 27.1606 40.3765 27.1606 40.4974Z" fill="white"/>
<path d="M27.1606 14.6097C27.1606 14.7306 27.0634 14.8305 26.9425 14.8305C26.8215 14.8305 26.7243 14.7306 26.7243 14.6097C26.7243 14.4888 26.8215 14.3915 26.9425 14.3915C27.0634 14.3915 27.1606 14.4888 27.1606 14.6097Z" fill="white"/>
<path d="M27.8151 40.4974C27.8151 40.6183 27.7178 40.7156 27.5969 40.7156C27.476 40.7156 27.3761 40.6183 27.3761 40.4974C27.3761 40.3765 27.476 40.2793 27.5969 40.2793C27.7178 40.2793 27.8151 40.3765 27.8151 40.4974Z" fill="white"/>
<path d="M27.8151 14.6097C27.8151 14.7306 27.7178 14.8305 27.5969 14.8305C27.476 14.8305 27.3761 14.7306 27.3761 14.6097C27.3761 14.4888 27.476 14.3915 27.5969 14.3915C27.7178 14.3915 27.8151 14.4888 27.8151 14.6097Z" fill="white"/>
<path d="M27.7284 7.43658H22.2349V8.20147H27.7284V7.43658Z" fill="white"/>
<path d="M27.7284 8.79025H22.2349V9.55251H27.7284V8.79025Z" fill="white"/>
<path d="M27.7284 10.1387H22.2349V10.9035H27.7284V10.1387Z" fill="white"/>
<path d="M27.7284 11.4923H22.2349V12.2572H27.7284V11.4923Z" fill="white"/>
<path d="M27.7284 12.8144H22.2349V13.5793H27.7284V12.8144Z" fill="white"/>
<path d="M27.7284 33.3243H22.2349V34.0866H27.7284V33.3243Z" fill="white"/>
<path d="M27.7284 34.678H22.2349V35.4403H27.7284V34.678Z" fill="white"/>
<path d="M27.7284 36.0264H22.2349V36.7913H27.7284V36.0264Z" fill="white"/>
<path d="M27.7284 37.3801H22.2349V38.1449H27.7284V37.3801Z" fill="white"/>
<path d="M27.7284 38.7022H22.2349V39.4671H27.7284V38.7022Z" fill="white"/>
<path d="M33.4216 27.6022C33.4216 27.7231 33.3244 27.8203 33.2035 27.8203C33.0826 27.8203 32.9853 27.7231 32.9853 27.6022C32.9853 27.4813 33.0826 27.384 33.2035 27.384C33.3244 27.384 33.4216 27.4813 33.4216 27.6022Z" fill="white"/>
<path d="M34.0761 27.6022C34.0761 27.7231 33.9789 27.8203 33.8553 27.8203C33.7344 27.8203 33.6398 27.7231 33.6398 27.6022C33.6398 27.4813 33.7344 27.384 33.8553 27.384C33.9789 27.384 34.0761 27.4813 34.0761 27.6022Z" fill="white"/>
<path d="M34.7306 27.6022C34.7306 27.7231 34.6307 27.8203 34.5098 27.8203C34.3889 27.8203 34.2916 27.7231 34.2916 27.6022C34.2916 27.4813 34.3889 27.384 34.5098 27.384C34.6307 27.384 34.7306 27.4813 34.7306 27.6022Z" fill="white"/>
<path d="M35.1643 27.8203C35.0434 27.8203 34.9461 27.7231 34.9461 27.6022C34.9461 27.4812 35.0434 27.384 35.1643 27.384C35.2852 27.384 35.3825 27.4812 35.3825 27.6022C35.3825 27.7231 35.2852 27.8203 35.1643 27.8203Z" fill="white"/>
<path d="M35.8188 27.384C35.9371 27.384 36.037 27.4813 36.037 27.6022C36.037 27.7231 35.9371 27.8203 35.8188 27.8203C35.6979 27.8203 35.6006 27.7231 35.6006 27.6022C35.6006 27.4813 35.6979 27.384 35.8188 27.384Z" fill="white"/>
<path d="M36.5679 29.3343C36.5679 29.747 36.2341 30.0834 35.8188 30.0834C35.4061 30.0834 35.0697 29.747 35.0697 29.3343C35.0697 28.919 35.4061 28.5826 35.8188 28.5826C36.2341 28.5826 36.5679 28.919 36.5679 29.3343Z" fill="white"/>
<path d="M36.6915 27.6022C36.6915 27.7231 36.5916 27.8203 36.4707 27.8203C36.3524 27.8203 36.2551 27.7231 36.2551 27.6022C36.2551 27.4813 36.3524 27.384 36.4707 27.384C36.5916 27.384 36.6915 27.4813 36.6915 27.6022Z" fill="white"/>
<path d="M37.346 27.6022C37.346 27.7231 37.246 27.8203 37.1251 27.8203C37.0042 27.8203 36.907 27.7231 36.907 27.6022C36.907 27.4813 37.0042 27.384 37.1251 27.384C37.246 27.384 37.346 27.4813 37.346 27.6022Z" fill="white"/>
<path d="M37.9978 27.6022C37.9978 27.7231 37.9005 27.8203 37.7796 27.8203C37.6587 27.8203 37.5614 27.7231 37.5614 27.6022C37.5614 27.4813 37.6587 27.384 37.7796 27.384C37.9005 27.384 37.9978 27.4813 37.9978 27.6022Z" fill="white"/>
<path d="M38.6523 27.6022C38.6523 27.7231 38.555 27.8203 38.4341 27.8203C38.3132 27.8203 38.2133 27.7231 38.2133 27.6022C38.2133 27.4813 38.3132 27.384 38.4341 27.384C38.555 27.384 38.6523 27.4813 38.6523 27.6022Z" fill="white"/>
<path d="M38.5655 20.4291H33.072V21.1913H38.5655V20.4291Z" fill="white"/>
<path d="M38.5655 21.7801H33.072V22.5424H38.5655V21.7801Z" fill="white"/>
<path d="M38.5655 23.1312H33.072V23.896H38.5655V23.1312Z" fill="white"/>
<path d="M38.5655 24.4822H33.072V25.2471H38.5655V24.4822Z" fill="white"/>
<path d="M38.5655 25.8043H33.072V26.5692H38.5655V25.8043Z" fill="white"/>
<path d="M28.9349 11.8734V18.2711H25.4574V22.1613L27.6416 23.8277H27.434V24.4822H31.8656V18.7679H35.4061V11.8734H28.9349ZM31.8656 31.2636V25.4337H27.434V28.2067H25.4574V31.6632H28.9349V38.1266H35.4035V31.2636H31.8656ZM24.5059 18.2711H21.0284V11.8734H14.5571V18.7679H18.1371V24.4822H22.5687V23.8277H22.3584L24.5059 22.1849V18.2711ZM11.5659 27.384C11.4476 27.384 11.3478 27.4813 11.3478 27.6022C11.3478 27.7231 11.4476 27.8203 11.5659 27.8203C11.6868 27.8203 11.7867 27.7231 11.7867 27.6022C11.7867 27.4813 11.6868 27.384 11.5659 27.384ZM12.2204 27.384C12.0995 27.384 12.0022 27.4813 12.0022 27.6022C12.0022 27.7231 12.0995 27.8203 12.2204 27.8203C12.3413 27.8203 12.4386 27.7231 12.4386 27.6022C12.4386 27.4813 12.3413 27.384 12.2204 27.384ZM12.8749 27.384C12.754 27.384 12.6541 27.4813 12.6541 27.6022C12.6541 27.7231 12.754 27.8203 12.8749 27.8203C12.9958 27.8203 13.0931 27.7231 13.0931 27.6022C13.0931 27.4813 12.9958 27.384 12.8749 27.384ZM13.5294 27.384C13.4085 27.384 13.3086 27.4813 13.3086 27.6022C13.3086 27.7231 13.4085 27.8203 13.5294 27.8203C13.6503 27.8203 13.7449 27.7231 13.7449 27.6022C13.7449 27.4813 13.6503 27.384 13.5294 27.384ZM14.1838 27.384C14.0629 27.384 13.963 27.4813 13.963 27.6022C13.963 27.7231 14.0629 27.8203 14.1838 27.8203C14.3021 27.8203 14.3994 27.7231 14.3994 27.6022C14.3994 27.4813 14.3021 27.384 14.1838 27.384ZM14.1838 28.5826C13.7685 28.5826 13.4321 28.919 13.4321 29.3343C13.4321 29.747 13.7685 30.0835 14.1838 30.0835C14.5965 30.0835 14.933 29.747 14.933 29.3343C14.933 28.919 14.5965 28.5826 14.1838 28.5826ZM14.8357 27.384C14.7148 27.384 14.6176 27.4813 14.6176 27.6022C14.6176 27.7231 14.7148 27.8203 14.8357 27.8203C14.9566 27.8203 15.0539 27.7231 15.0539 27.6022C15.0539 27.4813 14.9566 27.384 14.8357 27.384ZM15.4902 27.384C15.3693 27.384 15.2721 27.4813 15.2721 27.6022C15.2721 27.7231 15.3693 27.8203 15.4902 27.8203C15.6111 27.8203 15.7084 27.7231 15.7084 27.6022C15.7084 27.4813 15.6111 27.384 15.4902 27.384ZM16.1447 27.384C16.0238 27.384 15.9239 27.4813 15.9239 27.6022C15.9239 27.7231 16.0238 27.8203 16.1447 27.8203C16.2656 27.8203 16.3629 27.7231 16.3629 27.6022C16.3629 27.4813 16.2656 27.384 16.1447 27.384ZM16.7966 27.384C16.6756 27.384 16.5784 27.4813 16.5784 27.6022C16.5784 27.7231 16.6756 27.8203 16.7966 27.8203C16.9175 27.8203 17.0174 27.7231 17.0174 27.6022C17.0174 27.4813 16.9175 27.384 16.7966 27.384ZM11.4345 20.4291V21.1914H16.928V20.4291H11.4345ZM11.4345 21.7801V22.5424H16.928V21.7801H11.4345ZM11.4345 23.1312V23.896H16.928V23.1312H11.4345ZM11.4345 24.4822V25.2471H16.928V24.4822H11.4345ZM11.4345 25.8043V26.5692H16.928V25.8043H11.4345ZM23.4597 24.5663V25.4337H24.3482V24.5663H23.4597ZM24.5059 18.2711H21.0284V11.8734H14.5571V18.7679H18.1371V24.4822H22.5687V23.8277H22.3584L24.5059 22.1849V18.2711ZM25.4363 26.7322V26.7006H24.5663V26.7322H24.5058V28.2067H25.4574L25.4574 26.7322H25.4363ZM25.6414 24.5663V25.4337H26.5114V24.5663H25.6414ZM31.8656 24.4822V25.4337H31.9313V24.4822L31.8656 24.4822ZM31.8656 31.2636V25.4337H27.434V28.2067H25.4574V31.6632H28.9349V38.1266H35.4035V31.2636H31.8656ZM28.9349 11.8734V18.2711H25.4574V22.1613L27.6416 23.8277H27.434V24.4822H31.8656V18.7679H35.4061V11.8734H28.9349ZM35.4061 18.7679V11.8734H28.9349V18.2711H25.4574V22.1613L27.6416 23.8277H27.434V24.4822H31.8656V18.7679H35.4061ZM27.434 28.2067H25.4574V31.6632H28.9349V38.1266H35.4035V31.2636H31.8656V25.4337H27.434V28.2067ZM31.9313 25.4337V24.4822L31.8656 24.4822V25.4337H31.9313ZM26.5114 24.5663H25.6414V25.4337H26.5114V24.5663ZM25.4363 26.7322V26.7006H24.5663V26.7322H24.5058V28.2067H25.4574L25.4574 26.7322H25.4363ZM24.5059 22.1849V18.2711H21.0284V11.8734H14.5571V18.7679H18.1371V24.4822H22.5687V23.8277H22.3584L24.5059 22.1849ZM23.4597 24.5663V25.4337H24.3482V24.5663H23.4597ZM16.928 25.8043H11.4345V26.5692H16.928V25.8043ZM16.928 24.4822H11.4345V25.2471H16.928V24.4822ZM16.928 23.1312H11.4345V23.896H16.928V23.1312ZM16.928 21.7801H11.4345V22.5424H16.928V21.7801ZM16.928 20.4291H11.4345V21.1914H16.928V20.4291ZM16.7966 27.384C16.6756 27.384 16.5784 27.4813 16.5784 27.6022C16.5784 27.7231 16.6756 27.8203 16.7966 27.8203C16.9175 27.8203 17.0174 27.7231 17.0174 27.6022C17.0174 27.4813 16.9175 27.384 16.7966 27.384ZM16.1447 27.384C16.0238 27.384 15.9239 27.4813 15.9239 27.6022C15.9239 27.7231 16.0238 27.8203 16.1447 27.8203C16.2656 27.8203 16.3629 27.7231 16.3629 27.6022C16.3629 27.4813 16.2656 27.384 16.1447 27.384ZM15.4902 27.384C15.3693 27.384 15.2721 27.4813 15.2721 27.6022C15.2721 27.7231 15.3693 27.8203 15.4902 27.8203C15.6111 27.8203 15.7084 27.7231 15.7084 27.6022C15.7084 27.4813 15.6111 27.384 15.4902 27.384ZM14.8357 27.384C14.7148 27.384 14.6176 27.4813 14.6176 27.6022C14.6176 27.7231 14.7148 27.8203 14.8357 27.8203C14.9566 27.8203 15.0539 27.7231 15.0539 27.6022C15.0539 27.4813 14.9566 27.384 14.8357 27.384ZM14.1838 28.5826C13.7685 28.5826 13.4321 28.919 13.4321 29.3343C13.4321 29.747 13.7685 30.0835 14.1838 30.0835C14.5965 30.0835 14.933 29.747 14.933 29.3343C14.933 28.919 14.5965 28.5826 14.1838 28.5826ZM13.963 27.6022C13.963 27.7231 14.0629 27.8203 14.1838 27.8203C14.3021 27.8203 14.3994 27.7231 14.3994 27.6022C14.3994 27.4813 14.3021 27.384 14.1838 27.384C14.0629 27.384 13.963 27.4813 13.963 27.6022ZM13.7449 27.6022C13.7449 27.4813 13.6503 27.384 13.5294 27.384C13.4085 27.384 13.3086 27.4813 13.3086 27.6022C13.3086 27.7231 13.4085 27.8203 13.5294 27.8203C13.6503 27.8203 13.7449 27.7231 13.7449 27.6022ZM12.8749 27.384C12.754 27.384 12.6541 27.4813 12.6541 27.6022C12.6541 27.7231 12.754 27.8203 12.8749 27.8203C12.9958 27.8203 13.0931 27.7231 13.0931 27.6022C13.0931 27.4813 12.9958 27.384 12.8749 27.384ZM12.2204 27.384C12.0995 27.384 12.0022 27.4813 12.0022 27.6022C12.0022 27.7231 12.0995 27.8203 12.2204 27.8203C12.3413 27.8203 12.4386 27.7231 12.4386 27.6022C12.4386 27.4813 12.3413 27.384 12.2204 27.384ZM11.5659 27.384C11.4476 27.384 11.3478 27.4813 11.3478 27.6022C11.3478 27.7231 11.4476 27.8203 11.5659 27.8203C11.6868 27.8203 11.7867 27.7231 11.7867 27.6022C11.7867 27.4813 11.6868 27.384 11.5659 27.384ZM25 5C13.9552 5 5 13.9552 5 25C5 36.0448 13.9552 45 25 45C36.0449 45 45 36.0448 45 25C45 13.9552 36.0448 5 25 5ZM36.1763 31.2636V38.8993H28.9349V44.1589H21.0284V31.6632H24.5059L24.5058 28.2067H22.5687V25.4337H18.1371V31.2636H14.5545V38.1266H21.0258V38.8993H13.7817V31.2636H10.228V18.7679H13.7843V11.1007H21.0284V5.7754H28.9349V11.1006H36.1789V18.7679H39.772V31.2636L36.1763 31.2636ZM35.4061 18.7679V11.8734H28.9349V18.2711H25.4574V22.1613L27.6416 23.8277H27.434V24.4822H31.8656V18.7679H35.4061ZM28.9349 31.6632V38.1266H35.4035V31.2636H31.8656V25.4337H27.434V28.2067H25.4574V31.6632H28.9349ZM31.9313 24.4822L31.8656 24.4822V25.4337H31.9313V24.4822ZM26.5114 25.4337V24.5663H25.6414V25.4337H26.5114ZM25.4574 28.2067L25.4574 26.7322H25.4363V26.7006H24.5663V26.7322H24.5058V28.2067H25.4574ZM21.0284 11.8734H14.5571V18.7679H18.1371V24.4822H22.5687V23.8277H22.3584L24.5059 22.1849V18.2711H21.0284V11.8734ZM23.4597 24.5663V25.4337H24.3482V24.5663H23.4597ZM16.928 25.8043H11.4345V26.5692H16.928V25.8043ZM16.928 24.4822H11.4345V25.2471H16.928V24.4822ZM16.928 23.1312H11.4345V23.896H16.928V23.1312ZM16.928 21.7801H11.4345V22.5424H16.928V21.7801ZM16.928 20.4291H11.4345V21.1914H16.928V20.4291ZM16.7966 27.384C16.6756 27.384 16.5784 27.4813 16.5784 27.6022C16.5784 27.7231 16.6756 27.8203 16.7966 27.8203C16.9175 27.8203 17.0174 27.7231 17.0174 27.6022C17.0174 27.4813 16.9175 27.384 16.7966 27.384ZM16.1447 27.384C16.0238 27.384 15.9239 27.4813 15.9239 27.6022C15.9239 27.7231 16.0238 27.8203 16.1447 27.8203C16.2656 27.8203 16.3629 27.7231 16.3629 27.6022C16.3629 27.4813 16.2656 27.384 16.1447 27.384ZM15.4902 27.384C15.3693 27.384 15.2721 27.4813 15.2721 27.6022C15.2721 27.7231 15.3693 27.8203 15.4902 27.8203C15.6111 27.8203 15.7084 27.7231 15.7084 27.6022C15.7084 27.4813 15.6111 27.384 15.4902 27.384ZM14.8357 27.384C14.7148 27.384 14.6176 27.4813 14.6176 27.6022C14.6176 27.7231 14.7148 27.8203 14.8357 27.8203C14.9566 27.8203 15.0539 27.7231 15.0539 27.6022C15.0539 27.4813 14.9566 27.384 14.8357 27.384ZM14.1838 28.5826C13.7685 28.5826 13.4321 28.919 13.4321 29.3343C13.4321 29.747 13.7685 30.0835 14.1838 30.0835C14.5965 30.0835 14.933 29.747 14.933 29.3343C14.933 28.919 14.5965 28.5826 14.1838 28.5826ZM13.963 27.6022C13.963 27.7231 14.0629 27.8203 14.1838 27.8203C14.3021 27.8203 14.3994 27.7231 14.3994 27.6022C14.3994 27.4813 14.3021 27.384 14.1838 27.384C14.0629 27.384 13.963 27.4813 13.963 27.6022ZM13.7449 27.6022C13.7449 27.4813 13.6503 27.384 13.5294 27.384C13.4085 27.384 13.3086 27.4813 13.3086 27.6022C13.3086 27.7231 13.4085 27.8203 13.5294 27.8203C13.6503 27.8203 13.7449 27.7231 13.7449 27.6022ZM12.8749 27.384C12.754 27.384 12.6541 27.4813 12.6541 27.6022C12.6541 27.7231 12.754 27.8203 12.8749 27.8203C12.9958 27.8203 13.0931 27.7231 13.0931 27.6022C13.0931 27.4813 12.9958 27.384 12.8749 27.384ZM12.2204 27.384C12.0995 27.384 12.0022 27.4813 12.0022 27.6022C12.0022 27.7231 12.0995 27.8203 12.2204 27.8203C12.3413 27.8203 12.4386 27.7231 12.4386 27.6022C12.4386 27.4813 12.3413 27.384 12.2204 27.384ZM11.5659 27.384C11.4476 27.384 11.3478 27.4813 11.3478 27.6022C11.3478 27.7231 11.4476 27.8203 11.5659 27.8203C11.6868 27.8203 11.7867 27.7231 11.7867 27.6022C11.7867 27.4813 11.6868 27.384 11.5659 27.384ZM11.5659 27.384C11.4476 27.384 11.3478 27.4813 11.3478 27.6022C11.3478 27.7231 11.4476 27.8203 11.5659 27.8203C11.6868 27.8203 11.7867 27.7231 11.7867 27.6022C11.7867 27.4813 11.6868 27.384 11.5659 27.384ZM12.2204 27.384C12.0995 27.384 12.0022 27.4813 12.0022 27.6022C12.0022 27.7231 12.0995 27.8203 12.2204 27.8203C12.3413 27.8203 12.4386 27.7231 12.4386 27.6022C12.4386 27.4813 12.3413 27.384 12.2204 27.384ZM12.8749 27.384C12.754 27.384 12.6541 27.4813 12.6541 27.6022C12.6541 27.7231 12.754 27.8203 12.8749 27.8203C12.9958 27.8203 13.0931 27.7231 13.0931 27.6022C13.0931 27.4813 12.9958 27.384 12.8749 27.384ZM13.5294 27.384C13.4085 27.384 13.3086 27.4813 13.3086 27.6022C13.3086 27.7231 13.4085 27.8203 13.5294 27.8203C13.6503 27.8203 13.7449 27.7231 13.7449 27.6022C13.7449 27.4813 13.6503 27.384 13.5294 27.384ZM14.1838 27.384C14.0629 27.384 13.963 27.4813 13.963 27.6022C13.963 27.7231 14.0629 27.8203 14.1838 27.8203C14.3021 27.8203 14.3994 27.7231 14.3994 27.6022C14.3994 27.4813 14.3021 27.384 14.1838 27.384ZM14.1838 28.5826C13.7685 28.5826 13.4321 28.919 13.4321 29.3343C13.4321 29.747 13.7685 30.0835 14.1838 30.0835C14.5965 30.0835 14.933 29.747 14.933 29.3343C14.933 28.919 14.5965 28.5826 14.1838 28.5826ZM14.8357 27.384C14.7148 27.384 14.6176 27.4813 14.6176 27.6022C14.6176 27.7231 14.7148 27.8203 14.8357 27.8203C14.9566 27.8203 15.0539 27.7231 15.0539 27.6022C15.0539 27.4813 14.9566 27.384 14.8357 27.384ZM15.4902 27.384C15.3693 27.384 15.2721 27.4813 15.2721 27.6022C15.2721 27.7231 15.3693 27.8203 15.4902 27.8203C15.6111 27.8203 15.7084 27.7231 15.7084 27.6022C15.7084 27.4813 15.6111 27.384 15.4902 27.384ZM16.1447 27.384C16.0238 27.384 15.9239 27.4813 15.9239 27.6022C15.9239 27.7231 16.0238 27.8203 16.1447 27.8203C16.2656 27.8203 16.3629 27.7231 16.3629 27.6022C16.3629 27.4813 16.2656 27.384 16.1447 27.384ZM16.7966 27.384C16.6756 27.384 16.5784 27.4813 16.5784 27.6022C16.5784 27.7231 16.6756 27.8203 16.7966 27.8203C16.9175 27.8203 17.0174 27.7231 17.0174 27.6022C17.0174 27.4813 16.9175 27.384 16.7966 27.384ZM11.4345 20.4291V21.1914H16.928V20.4291H11.4345ZM11.4345 21.7801V22.5424H16.928V21.7801H11.4345ZM11.4345 23.1312V23.896H16.928V23.1312H11.4345ZM11.4345 24.4822V25.2471H16.928V24.4822H11.4345ZM11.4345 25.8043V26.5692H16.928V25.8043H11.4345ZM23.4597 24.5663V25.4337H24.3482V24.5663H23.4597ZM24.5059 18.2711H21.0284V11.8734H14.5571V18.7679H18.1371V24.4822H22.5687V23.8277H22.3584L24.5059 22.1849V18.2711ZM25.4363 26.7322V26.7006H24.5663V26.7322H24.5058V28.2067H25.4574L25.4574 26.7322H25.4363ZM25.6414 24.5663V25.4337H26.5114V24.5663H25.6414ZM31.8656 24.4822V25.4337H31.9313V24.4822L31.8656 24.4822ZM31.8656 31.2636V25.4337H27.434V28.2067H25.4574V31.6632H28.9349V38.1266H35.4035V31.2636H31.8656ZM28.9349 11.8734V18.2711H25.4574V22.1613L27.6416 23.8277H27.434V24.4822H31.8656V18.7679H35.4061V11.8734H28.9349ZM28.9349 11.8734V18.2711H25.4574V22.1613L27.6416 23.8277H27.434V24.4822H31.8656V18.7679H35.4061V11.8734H28.9349ZM31.8656 31.2636V25.4337H27.434V28.2067H25.4574V31.6632H28.9349V38.1266H35.4035V31.2636H31.8656ZM31.8656 24.4822V25.4337H31.9313V24.4822L31.8656 24.4822ZM25.6414 24.5663V25.4337H26.5114V24.5663H25.6414ZM25.4363 26.7322V26.7006H24.5663V26.7322H24.5058V28.2067H25.4574L25.4574 26.7322H25.4363ZM24.5059 18.2711H21.0284V11.8734H14.5571V18.7679H18.1371V24.4822H22.5687V23.8277H22.3584L24.5059 22.1849V18.2711ZM23.4597 24.5663V25.4337H24.3482V24.5663H23.4597ZM11.4345 25.8043V26.5692H16.928V25.8043H11.4345ZM11.4345 24.4822V25.2471H16.928V24.4822H11.4345ZM11.4345 23.1312V23.896H16.928V23.1312H11.4345ZM11.4345 21.7801V22.5424H16.928V21.7801H11.4345ZM11.4345 20.4291V21.1914H16.928V20.4291H11.4345ZM16.7966 27.384C16.6756 27.384 16.5784 27.4813 16.5784 27.6022C16.5784 27.7231 16.6756 27.8203 16.7966 27.8203C16.9175 27.8203 17.0174 27.7231 17.0174 27.6022C17.0174 27.4813 16.9175 27.384 16.7966 27.384ZM16.1447 27.384C16.0238 27.384 15.9239 27.4813 15.9239 27.6022C15.9239 27.7231 16.0238 27.8203 16.1447 27.8203C16.2656 27.8203 16.3629 27.7231 16.3629 27.6022C16.3629 27.4813 16.2656 27.384 16.1447 27.384ZM15.4902 27.384C15.3693 27.384 15.2721 27.4813 15.2721 27.6022C15.2721 27.7231 15.3693 27.8203 15.4902 27.8203C15.6111 27.8203 15.7084 27.7231 15.7084 27.6022C15.7084 27.4813 15.6111 27.384 15.4902 27.384ZM14.8357 27.384C14.7148 27.384 14.6176 27.4813 14.6176 27.6022C14.6176 27.7231 14.7148 27.8203 14.8357 27.8203C14.9566 27.8203 15.0539 27.7231 15.0539 27.6022C15.0539 27.4813 14.9566 27.384 14.8357 27.384ZM14.1838 28.5826C13.7685 28.5826 13.4321 28.919 13.4321 29.3343C13.4321 29.747 13.7685 30.0835 14.1838 30.0835C14.5965 30.0835 14.933 29.747 14.933 29.3343C14.933 28.919 14.5965 28.5826 14.1838 28.5826ZM14.1838 27.384C14.0629 27.384 13.963 27.4813 13.963 27.6022C13.963 27.7231 14.0629 27.8203 14.1838 27.8203C14.3021 27.8203 14.3994 27.7231 14.3994 27.6022C14.3994 27.4813 14.3021 27.384 14.1838 27.384ZM13.5294 27.384C13.4085 27.384 13.3086 27.4813 13.3086 27.6022C13.3086 27.7231 13.4085 27.8203 13.5294 27.8203C13.6503 27.8203 13.7449 27.7231 13.7449 27.6022C13.7449 27.4813 13.6503 27.384 13.5294 27.384ZM12.8749 27.384C12.754 27.384 12.6541 27.4813 12.6541 27.6022C12.6541 27.7231 12.754 27.8203 12.8749 27.8203C12.9958 27.8203 13.0931 27.7231 13.0931 27.6022C13.0931 27.4813 12.9958 27.384 12.8749 27.384ZM12.2204 27.384C12.0995 27.384 12.0022 27.4813 12.0022 27.6022C12.0022 27.7231 12.0995 27.8203 12.2204 27.8203C12.3413 27.8203 12.4386 27.7231 12.4386 27.6022C12.4386 27.4813 12.3413 27.384 12.2204 27.384ZM11.5659 27.384C11.4476 27.384 11.3478 27.4813 11.3478 27.6022C11.3478 27.7231 11.4476 27.8203 11.5659 27.8203C11.6868 27.8203 11.7867 27.7231 11.7867 27.6022C11.7867 27.4813 11.6868 27.384 11.5659 27.384Z" fill="white"/>
<path d="M31.8656 24.4822V25.4337H31.9313V24.4822H31.8656Z" fill="black"/>
<path d="M24.3481 24.5663H23.4781V25.4337H24.3481V24.5663Z" fill="black"/>
<path d="M25.4363 26.7006H24.5663V28.2067H25.4363V26.7006Z" fill="black"/>
<path d="M24.3481 24.5663H23.4781V25.4337H24.3481V24.5663Z" fill="white"/>
<path d="M26.5114 24.5663H25.6414V25.4337H26.5114V24.5663Z" fill="white"/>
<path d="M25.4363 26.7006H24.5663V28.2067H25.4363V26.7006Z" fill="white"/>
<path d="M31.8656 24.4822V25.4337H31.9313V24.4822H31.8656ZM25.6414 24.5663V25.4337H26.5114V24.5663H25.6414ZM25.4363 26.7322V26.7006H24.5663V26.7322H24.5058V28.2067H25.4574V26.7322H25.4363ZM23.4597 24.5663V25.4337H24.3482V24.5663H23.4597Z" fill="black"/>
<path d="M24.3271 24.5663H23.4597V25.4337H24.3271V24.5663Z" fill="white"/>
<path d="M26.5088 24.5663H25.6414V25.4337H26.5088V24.5663Z" fill="white"/>
<path d="M25.4574 26.7322H24.5059V28.2067H25.4574V26.7322Z" fill="white"/>
</g>
<defs>
<clipPath id="clip0_2007_198">
<rect width="40" height="40" fill="white" transform="translate(5 5)"/>
</clipPath>
</defs>
</svg>
