<svg width="44" height="65" viewBox="0 0 44 65" fill="none" xmlns="http://www.w3.org/2000/svg">
<g filter="url(#filter0_ddd_270_150)">
<rect x="-5.96046e-08" y="-0.711744" width="7.54189" height="7.54189" transform="matrix(0.702438 -0.711744 -0.702438 -0.711744 21.4997 27.1001)" stroke="white"/>
<rect x="-5.96046e-08" y="-0.711744" width="7.54189" height="7.54189" transform="matrix(0.702438 -0.711744 -0.702438 -0.711744 27.5003 21.0205)" stroke="white"/>
<rect x="-5.96046e-08" y="-0.711744" width="7.54189" height="7.54189" transform="matrix(0.702438 -0.711744 -0.702438 -0.711744 33.4998 14.941)" stroke="white"/>
<rect x="-5.96046e-08" y="-0.711744" width="7.54189" height="7.54189" transform="matrix(0.702438 -0.711744 -0.702438 -0.711744 15.4996 21.0205)" stroke="white"/>
<rect x="-5.96046e-08" y="-0.711744" width="7.54189" height="7.54189" transform="matrix(0.702438 -0.711744 -0.702438 -0.711744 9.50016 14.941)" stroke="white"/>
</g>
<rect x="-5.96046e-08" y="-0.711744" width="7.54189" height="7.54189" transform="matrix(0.702438 -0.711744 -0.702438 -0.711744 21.4997 45.6586)" stroke="white" stroke-opacity="0.7"/>
<rect x="-5.96046e-08" y="-0.711744" width="7.54189" height="7.54189" transform="matrix(0.702438 -0.711744 -0.702438 -0.711744 27.5003 39.5791)" stroke="white" stroke-opacity="0.7"/>
<rect x="-5.96046e-08" y="-0.711744" width="7.54189" height="7.54189" transform="matrix(0.702438 -0.711744 -0.702438 -0.711744 33.4998 33.4995)" stroke="white" stroke-opacity="0.7"/>
<rect x="-5.96046e-08" y="-0.711744" width="7.54189" height="7.54189" transform="matrix(0.702438 -0.711744 -0.702438 -0.711744 15.4996 39.5791)" stroke="white" stroke-opacity="0.7"/>
<rect x="-5.96046e-08" y="-0.711744" width="7.54189" height="7.54189" transform="matrix(0.702438 -0.711744 -0.702438 -0.711744 9.50016 33.4995)" stroke="white" stroke-opacity="0.7"/>
<rect x="-5.96046e-08" y="-0.711744" width="7.54189" height="7.54189" transform="matrix(0.702438 -0.711744 -0.702438 -0.711744 21.4997 63.7817)" stroke="white" stroke-opacity="0.7"/>
<rect x="-5.96046e-08" y="-0.711744" width="7.54189" height="7.54189" transform="matrix(0.702438 -0.711744 -0.702438 -0.711744 27.5003 57.7022)" stroke="white" stroke-opacity="0.7"/>
<rect x="-5.96046e-08" y="-0.711744" width="7.54189" height="7.54189" transform="matrix(0.702438 -0.711744 -0.702438 -0.711744 33.4998 51.6226)" stroke="white" stroke-opacity="0.7"/>
<rect x="-5.96046e-08" y="-0.711744" width="7.54189" height="7.54189" transform="matrix(0.702438 -0.711744 -0.702438 -0.711744 15.4996 57.7022)" stroke="white" stroke-opacity="0.7"/>
<rect x="-5.96046e-08" y="-0.711744" width="7.54189" height="7.54189" transform="matrix(0.702438 -0.711744 -0.702438 -0.711744 9.50016 51.6226)" stroke="white" stroke-opacity="0.7"/>
<defs>
<filter id="filter0_ddd_270_150" x="0" y="0" width="43.9999" height="32.3184" filterUnits="userSpaceOnUse" color-interpolation-filters="sRGB">
<feFlood flood-opacity="0" result="BackgroundImageFix"/>
<feColorMatrix in="SourceAlpha" type="matrix" values="0 0 0 0 0 0 0 0 0 0 0 0 0 0 0 0 0 0 127 0" result="hardAlpha"/>
<feOffset/>
<feGaussianBlur stdDeviation="2"/>
<feComposite in2="hardAlpha" operator="out"/>
<feColorMatrix type="matrix" values="0 0 0 0 1 0 0 0 0 1 0 0 0 0 1 0 0 0 0.25 0"/>
<feBlend mode="normal" in2="BackgroundImageFix" result="effect1_dropShadow_270_150"/>
<feColorMatrix in="SourceAlpha" type="matrix" values="0 0 0 0 0 0 0 0 0 0 0 0 0 0 0 0 0 0 127 0" result="hardAlpha"/>
<feOffset/>
<feGaussianBlur stdDeviation="2"/>
<feComposite in2="hardAlpha" operator="out"/>
<feColorMatrix type="matrix" values="0 0 0 0 1 0 0 0 0 1 0 0 0 0 1 0 0 0 0.25 0"/>
<feBlend mode="normal" in2="effect1_dropShadow_270_150" result="effect2_dropShadow_270_150"/>
<feColorMatrix in="SourceAlpha" type="matrix" values="0 0 0 0 0 0 0 0 0 0 0 0 0 0 0 0 0 0 127 0" result="hardAlpha"/>
<feOffset/>
<feGaussianBlur stdDeviation="2"/>
<feComposite in2="hardAlpha" operator="out"/>
<feColorMatrix type="matrix" values="0 0 0 0 0.999962 0 0 0 0 0.999962 0 0 0 0 0.999962 0 0 0 0.25 0"/>
<feBlend mode="normal" in2="effect2_dropShadow_270_150" result="effect3_dropShadow_270_150"/>
<feBlend mode="normal" in="SourceGraphic" in2="effect3_dropShadow_270_150" result="shape"/>
</filter>
</defs>
</svg>
