<svg width="12" height="12" viewBox="0 0 12 12" fill="none" xmlns="http://www.w3.org/2000/svg">
<path d="M11.9999 1.02501C11.9999 0.458912 11.541 -2.36412e-06 10.9749 -1.86053e-06L1.74973 -5.64493e-07C1.18363 -8.38524e-07 0.724717 0.458914 0.724717 1.02501C0.724717 1.59111 1.18363 2.05003 1.74973 2.05003L9.94985 2.05003L9.94985 10.2501C9.94985 10.8162 10.4088 11.2752 10.9749 11.2752C11.541 11.2752 11.9999 10.8162 11.9999 10.2501L11.9999 1.02501ZM0.724717 11.2752L1.44951 12L11.6997 1.74981L10.9749 1.02501L10.2501 0.300218L-7.74692e-05 10.5504L0.724717 11.2752Z" fill="white"/>
</svg>
